<svg xmlns="http://www.w3.org/2000/svg" width="6935" height="1986"><path fill="#1bab95" d="M993.837.325c548.73 0 993.562 444.35 993.562 992.484 0 548.13-444.838 992.48-993.567 992.48C445.103 1985.29.27 1540.94.27 992.805S445.108.326 993.838.326z"/><path fill="#17907d" d="M1436.774 356.888L533.608 500.16v542.68l328.285 328.257-396.12 223.79 378.79 379.27c48.69 7.328 98.537 11.137 149.273 11.137 548.73 0 993.562-444.352 993.562-992.486 0-30.237-1.357-60.158-4.008-89.707l-546.616-546.21z"/><path fill="#fff" d="M936.584 511.712l.274 96.268h500.766V356.723h-629.76c-125.594 0-216.816 28.435-273.613 85.248-56.82 56.84-85.22 148.067-85.22 273.69v53.84c0 125.63 28.4 216.88 85.225 273.697 56.798 56.842 148.02 85.248 273.614 85.248h312.064l-1.473-105.363 269.44 222.04-269.44 235.497v-100.93s-325.562-8.96-653.282-26.91v242.285c130.36 10.767 256.57 19.124 378.574 25.125l165.066 7.18c68.178 2.382 132.77 3.588 193.772 3.588 117.21 0 203.33-27.51 258.363-82.556 55.003-55.02 82.533-141.166 82.533-258.438v-89.733c0-117.245-27.53-203.39-82.532-258.437-55.03-55.02-141.15-82.555-258.362-82.555h-266.3l.298 103.283-262.71-222.04 262.705-228.77z"/><path fill="#505050" d="M2574.466 1596.18c-7.224 0-13.935-.51-20.13-1.527-6.2-1.023-11.852-2.808-16.953-5.36-5.105-2.546-9.637-5.945-13.598-10.18-3.966-4.24-7.32-9.596-10.066-16.07-2.75-6.475-4.83-14.144-6.246-23.015-1.415-8.872-2.118-19.195-2.118-30.97 0-17.66 1.57-32.178 4.71-43.562 3.137-11.376 7.69-20.347 13.656-26.9 5.967-6.55 13.223-11.107 21.778-13.657 8.556-2.55 18.21-3.83 28.96-3.83 7.14 0 13.81.55 20.016 1.648 6.2 1.103 11.85 2.946 16.95 5.535 5.103 2.588 9.613 6.062 13.537 10.42 3.924 4.355 7.24 9.794 9.95 16.306 2.708 6.512 4.767 14.226 6.178 23.135 1.41 8.908 2.12 19.207 2.12 30.904 0 11.7-.707 21.98-2.12 30.846-1.41 8.87-3.47 16.544-6.18 23.015-2.706 6.48-6.022 11.856-9.946 16.134-3.924 4.277-8.44 7.673-13.536 10.182-5.104 2.513-10.75 4.294-16.95 5.355-6.2 1.063-12.87 1.59-20.015 1.59zm0-26.018c7.69 0 14.068-.903 19.132-2.705 5.064-1.802 9.084-5.006 12.067-9.595 2.984-4.594 5.08-10.836 6.3-18.72 1.22-7.886 1.826-17.918 1.826-30.08 0-12.242-.602-22.328-1.82-30.255-1.216-7.923-3.317-14.222-6.3-18.895-2.984-4.67-7.004-7.927-12.068-9.774-5.064-1.84-11.443-2.763-19.132-2.763-7.694 0-14.09.923-19.19 2.763-5.106 1.843-9.147 5.105-12.13 9.774-2.983 4.673-5.08 10.972-6.3 18.895-1.215 7.927-1.822 18.013-1.822 30.255 0 12.166.607 22.194 1.822 30.08 1.215 7.884 3.317 14.13 6.3 18.72 2.983 4.59 7.024 7.79 12.13 9.595 5.1 1.802 11.496 2.705 19.19 2.705zm151.944-145.632h66.633c3.612 0 7.26.275 10.948.825 3.69.55 7.22 1.59 10.6 3.116 3.373 1.537 6.51 3.596 9.42 6.18 2.904 2.597 5.454 5.91 7.65 9.957 2.197 4.045 3.903 8.93 5.12 14.656 1.22 5.725 1.824 12.437 1.824 20.13 0 7.694-.666 14.385-2 20.073-1.337 5.692-3.14 10.536-5.415 14.54-2.277 4.002-4.944 7.26-8.007 9.773-3.056 2.512-6.32 4.493-9.77 5.945-3.45 1.458-7.005 2.436-10.654 2.944-3.65.51-7.24.77-10.774.77h-37.32v59.097h-28.257v-168zm62.277 82.647c4.24 0 7.673-.708 10.302-2.123 2.62-1.41 4.7-3.374 6.24-5.883 1.53-2.51 2.57-5.454 3.12-8.83.55-3.374.82-7.02.82-10.95 0-3.84-.273-7.49-.822-10.944-.55-3.454-1.59-6.495-3.12-9.125s-3.613-4.71-6.243-6.24c-2.63-1.53-6.067-2.295-10.303-2.295h-34.025v56.394h34.024zm128.986-82.647h101.013v26.257h-72.755v44.148h60.988v25.78h-60.983v45.56h74.757v26.256h-103.014v-168zm183.497 0h46.856l61.22 141.745h.592c-.08-2.825-.158-5.688-.237-8.592-.074-2.513-.112-5.218-.112-8.122v-125.03h28.02v168h-45.845l-51.86-118.2c-1.414-3.292-2.75-6.35-4.006-9.18-1.26-2.825-2.318-5.292-3.183-7.415-1.1-2.512-2.08-4.825-2.945-6.943h-.47v141.744h-28.02v-168zm328.49 142.923c4.002.55 8.322 1.02 12.95 1.41 4 .396 8.574.708 13.713.945 5.14.237 10.578.354 16.303.354 7.61 0 13.656-.487 18.13-1.473 4.473-.98 7.89-2.43 10.24-4.36 2.355-1.92 3.865-4.296 4.535-7.126.67-2.825 1-6.08 1-9.774 0-2.9-.133-5.55-.41-7.942-.273-2.393-.93-4.536-1.94-6.416-1.025-1.885-2.477-3.512-4.358-4.89-1.885-1.368-4.473-2.492-7.773-3.353l-34.258-8.947c-5.416-1.415-10.01-3.317-13.775-5.71-3.766-2.392-6.812-5.438-9.125-9.124-2.317-3.69-4.002-8.143-5.063-13.36-1.058-5.223-1.59-11.36-1.59-18.43 0-8.318 1.256-15.517 3.765-21.6 2.51-6.084 6.067-11.085 10.657-15.01 4.592-3.923 10.143-6.827 16.66-8.71 6.51-1.887 13.772-2.827 21.778-2.827 6.67 0 12.77.374 18.304 1.12 5.534.748 10.303 1.547 14.306 2.412 4.71 1.02 8.987 2.16 12.832 3.412v21.777c-3.533-.47-7.257-.903-11.185-1.298-3.378-.39-7.165-.725-11.36-1-4.198-.27-8.533-.41-13.006-.41-6.994 0-12.724.235-17.19.7-4.476.47-8.01 1.458-10.596 2.947-2.59 1.49-4.4 3.608-5.418 6.354-1.02 2.75-1.53 6.4-1.53 10.953 0 2.515.136 4.754.41 6.71.275 1.965.904 3.69 1.89 5.18.982 1.49 2.396 2.79 4.244 3.887 1.847 1.103 4.34 2.122 7.48 3.06l31.96 9.182c4.084 1.175 7.72 2.41 10.904 3.71 3.183 1.3 5.954 2.824 8.314 4.592 2.353 1.765 4.38 3.824 6.07 6.18 1.684 2.35 3.04 5.16 4.07 8.413 1.022 3.258 1.766 7.086 2.24 11.48.47 4.398.704 9.458.704 15.188 0 8.946-.766 16.62-2.297 23.014-1.532 6.395-4.424 11.617-8.664 15.657-4.25 4.045-10.076 7.024-17.503 8.946-7.424 1.924-17.03 2.885-28.815 2.885-9.112 0-16.677-.412-22.685-1.236-6.014-.825-10.907-1.75-14.677-2.768-4.323-1.178-7.74-2.513-10.253-4.003v-20.71zm247.42 28.727c-7.218 0-13.934-.51-20.13-1.527-6.2-1.023-11.855-2.808-16.956-5.36-5.1-2.546-9.633-5.945-13.598-10.18-3.966-4.237-7.32-9.596-10.066-16.07-2.746-6.475-4.826-14.144-6.24-23.015-1.412-8.867-2.12-19.187-2.12-30.962 0-17.66 1.57-32.177 4.71-43.562 3.14-11.376 7.695-20.347 13.658-26.9 5.962-6.55 13.223-11.106 21.778-13.657 8.555-2.547 18.205-3.824 28.96-3.824 7.14 0 13.81.55 20.015 1.648 6.2 1.107 11.86 2.95 16.957 5.54 5.106 2.587 9.616 6.06 13.54 10.42 3.924 4.355 7.24 9.793 9.95 16.305 2.708 6.513 4.767 14.227 6.182 23.136 1.41 8.91 2.117 19.207 2.117 30.904 0 11.7-.707 21.978-2.118 30.845-1.416 8.87-3.475 16.543-6.184 23.014-2.705 6.48-6.02 11.855-9.95 16.132-3.927 4.278-8.433 7.673-13.54 10.182-5.1 2.513-10.75 4.294-16.95 5.355-6.2 1.06-12.87 1.58-20.01 1.58zm0-26.018c7.695 0 14.07-.903 19.133-2.705 5.064-1.802 9.084-5.006 12.067-9.595 2.984-4.594 5.08-10.836 6.3-18.72 1.215-7.89 1.822-17.918 1.822-30.08 0-12.242-.607-22.328-1.822-30.255-1.22-7.923-3.316-14.222-6.3-18.895-2.987-4.67-7.007-7.927-12.067-9.774-5.064-1.84-11.438-2.763-19.132-2.763-7.69 0-14.084.923-19.19 2.763-5.1 1.843-9.14 5.105-12.12 9.774-2.984 4.673-5.085 10.972-6.3 18.895-1.22 7.927-1.823 18.013-1.823 30.255 0 12.166.608 22.194 1.823 30.08 1.214 7.89 3.315 14.13 6.3 18.72 2.982 4.59 7.022 7.79 12.123 9.595 5.103 1.802 11.498 2.705 19.19 2.705zm151.353-145.632h28.02v112.315c0 6.674.59 12.166 1.765 16.48 1.177 4.32 3.12 7.716 5.825 10.183 2.71 2.476 6.22 4.203 10.54 5.18 4.315.983 9.612 1.474 15.89 1.474 5.65 0 10.574-.487 14.776-1.473 4.194-.98 7.71-2.71 10.53-5.186 2.826-2.47 4.928-5.863 6.3-10.182 1.374-4.315 2.06-9.807 2.06-16.48V1424.53h28.02v113.962c0 9.812-1.123 18.33-3.357 25.553-2.24 7.22-5.826 13.207-10.773 17.95-4.942 4.752-11.325 8.302-19.13 10.657-7.81 2.35-17.29 3.533-28.43 3.533-11.15 0-20.645-1.157-28.497-3.475-7.848-2.313-14.264-5.825-19.25-10.536-4.98-4.71-8.612-10.656-10.888-17.834-2.276-7.177-3.412-15.637-3.412-25.373V1424.53zm214.22 0h62.516c4.47 0 8.84.292 13.12.883 4.276.59 8.316 1.63 12.124 3.12 3.807 1.49 7.28 3.517 10.42 6.063 3.14 2.55 5.866 5.826 8.184 9.83 2.313 4 4.1 8.79 5.355 14.362 1.256 5.576 1.885 12.125 1.885 19.66 0 5.028-.414 9.52-1.234 13.483-.824 3.966-1.927 7.48-3.3 10.54-1.373 3.06-2.942 5.73-4.71 8.006-1.764 2.276-3.554 4.24-5.355 5.888-4.313 3.767-9.18 6.396-14.595 7.89v.237l35.435 68.05h-32.257l-31.436-61.692h-27.9v61.69h-28.257v-168.003zm62.283 79.7c14.755 0 22.132-9.14 22.132-27.43 0-4.784-.532-8.85-1.594-12.186-1.056-3.337-2.588-6.02-4.593-8.064-1.993-2.04-4.41-3.512-7.23-4.415-2.83-.903-5.968-1.352-9.42-1.352h-33.32v53.448h34.03zm194.914 91.243c-5.418 0-10.815-.512-16.19-1.527-5.377-1.024-10.483-2.788-15.31-5.297-4.822-2.518-9.316-5.91-13.477-10.187-4.16-4.278-7.768-9.695-10.83-16.245-3.063-6.553-5.46-14.343-7.187-23.37-1.727-9.027-2.588-19.584-2.588-31.667 0-11.617.978-21.8 2.942-30.553 1.964-8.75 4.594-16.303 7.89-22.66 3.3-6.36 7.144-11.598 11.538-15.717 4.394-4.12 9.025-7.394 13.89-9.828 4.867-2.435 9.81-4.14 14.833-5.12 5.027-.98 9.85-1.472 14.48-1.472 7.85 0 14.677.396 20.49 1.178 5.81.783 10.673 1.65 14.6 2.593 4.553 1.1 8.435 2.35 11.656 3.767v20.246c-3.217-.237-6.675-.47-10.36-.707-3.14-.155-6.73-.334-10.774-.53-4.045-.195-8.26-.295-12.654-.295-4.003 0-7.99.16-11.95.47-3.965.318-7.77 1.125-11.418 2.415-3.653 1.293-7.044 3.194-10.186 5.7-3.135 2.513-5.865 5.94-8.18 10.294-2.316 4.35-4.12 9.78-5.416 16.29-1.298 6.507-1.943 14.39-1.943 23.642 0 9.724.665 18.034 2 24.933 1.333 6.9 3.18 12.664 5.53 17.29 2.356 4.63 5.107 8.274 8.24 10.94 3.14 2.668 6.554 4.686 10.244 6.06 3.69 1.37 7.535 2.234 11.534 2.583 4 .355 8.01.53 12.01.53 5.178 0 9.888-.08 14.128-.238 4.24-.154 7.852-.312 10.835-.466 3.533-.24 6.708-.47 9.537-.71v20.336c-3.46 1.423-7.54 2.642-12.248 3.67-4.077.944-9.083 1.79-15.008 2.538-5.92.737-12.812 1.11-20.655 1.11zm129.34-170.943h101.012v26.257h-72.755v44.148h60.98v25.78h-60.98v45.56h74.757v26.256H4429.19v-168zm291.99 0h101.012v26.257h-72.755v44.148h60.98v25.78h-60.98v45.56h74.757v26.256H4721.18v-168zm169.132 85.35h79.35v26.727h-79.35v-26.726zm213.755 85.593c-5.418 0-10.815-.512-16.19-1.527-5.377-1.024-10.482-2.788-15.31-5.297-4.822-2.518-9.315-5.91-13.476-10.187-4.16-4.278-7.764-9.695-10.83-16.245-3.06-6.553-5.46-14.343-7.183-23.37-1.726-9.027-2.588-19.584-2.588-31.667 0-11.617.977-21.8 2.94-30.553 1.964-8.75 4.594-16.303 7.89-22.66 3.3-6.36 7.144-11.598 11.538-15.717 4.394-4.12 9.025-7.394 13.89-9.828 4.868-2.435 9.81-4.14 14.833-5.12 5.023-.98 9.85-1.472 14.48-1.472 7.848 0 14.67.396 20.485 1.178 5.81.783 10.673 1.65 14.6 2.593 4.553 1.1 8.435 2.35 11.656 3.767v20.246c-3.216-.237-6.674-.47-10.36-.707-3.138-.155-6.73-.334-10.774-.53-4.044-.195-8.26-.295-12.653-.295-4.003 0-7.99.16-11.95.47-3.966.318-7.77 1.125-11.42 2.415-3.652 1.293-7.043 3.194-10.185 5.7-3.137 2.513-5.867 5.94-8.18 10.294-2.318 4.35-4.12 9.78-5.418 16.29-1.3 6.507-1.947 14.39-1.947 23.642 0 9.724.666 18.034 2 24.933 1.333 6.9 3.18 12.664 5.53 17.29 2.357 4.63 5.107 8.274 8.24 10.94 3.142 2.668 6.554 4.686 10.245 6.06 3.69 1.37 7.535 2.234 11.534 2.583 4.003.355 8.01.53 12.013.53 5.176 0 9.886-.08 14.126-.238 4.24-.154 7.854-.312 10.838-.466 3.53-.24 6.706-.47 9.536-.71v20.336c-3.458 1.423-7.54 2.642-12.246 3.67-4.076.944-9.082 1.79-15.007 2.538-5.92.737-12.807 1.11-20.654 1.11zm190.557.707c-7.22 0-13.935-.51-20.13-1.527-6.2-1.023-11.856-2.808-16.957-5.36-5.1-2.546-9.633-5.945-13.598-10.18-3.97-4.237-7.32-9.596-10.07-16.07-2.747-6.475-4.827-14.144-6.24-23.015-1.41-8.867-2.12-19.187-2.12-30.962 0-17.66 1.57-32.177 4.71-43.562 3.14-11.376 7.694-20.347 13.66-26.9 5.96-6.55 13.22-11.106 21.78-13.657 8.55-2.547 18.2-3.824 28.96-3.824 7.14 0 13.81.55 20.01 1.648 6.2 1.107 11.856 2.95 16.953 5.54 5.106 2.587 9.616 6.06 13.54 10.42 3.924 4.355 7.24 9.793 9.95 16.305 2.708 6.513 4.767 14.227 6.182 23.136 1.41 8.91 2.118 19.207 2.118 30.904 0 11.7-.707 21.978-2.118 30.845-1.415 8.87-3.474 16.543-6.183 23.014-2.705 6.48-6.02 11.855-9.95 16.132-3.927 4.278-8.433 7.673-13.54 10.182-5.1 2.513-10.75 4.294-16.95 5.355-6.2 1.06-12.87 1.58-20.01 1.58zm0-26.018c7.694 0 14.068-.903 19.132-2.705 5.064-1.802 9.084-5.006 12.067-9.595 2.984-4.594 5.08-10.836 6.3-18.72 1.215-7.89 1.822-17.918 1.822-30.08 0-12.242-.607-22.328-1.822-30.255-1.22-7.923-3.316-14.222-6.3-18.895-2.987-4.67-7.007-7.927-12.067-9.774-5.064-1.84-11.438-2.763-19.132-2.763-7.694 0-14.09.923-19.19 2.763-5.102 1.843-9.142 5.105-12.126 9.774-2.983 4.673-5.084 10.972-6.3 18.895-1.22 7.927-1.822 18.013-1.822 30.255 0 12.166.607 22.194 1.822 30.08 1.216 7.89 3.317 14.13 6.3 18.72 2.984 4.59 7.024 7.79 12.125 9.595 5.102 1.802 11.497 2.705 19.19 2.705zm151.943-145.632h49.008l31.108 101.246h.944l32.16-101.245h48.19v168h-28.258v-141.74h-.71l-3.18 10.596c-.867 2.988-1.807 6.105-2.827 9.363-1.02 3.253-1.926 6.06-2.708 8.412l-21.664 67.817h-42.262l-22.13-68.287c-.784-2.35-1.687-5.117-2.706-8.296-1.02-3.183-1.964-6.22-2.825-9.125-1.024-3.375-2.08-6.867-3.183-10.478h-.704v141.745h-28.257v-168zm252.365 0h49.008l31.108 101.246h.944l32.16-101.245h48.19v168h-28.258v-141.74h-.708l-3.18 10.596c-.864 2.988-1.805 6.105-2.824 9.363-1.02 3.253-1.927 6.06-2.71 8.412l-21.66 67.817h-42.264l-22.133-68.287c-.782-2.35-1.685-5.117-2.704-8.296-1.02-3.183-1.96-6.22-2.82-9.125-1.024-3.375-2.08-6.867-3.184-10.478h-.703v141.745h-28.257v-168zm252.364 0h101.013v26.257h-72.76v44.148h60.98v25.78h-60.98v45.56h74.756v26.256H5951.29v-168zm183.496 0h62.515c4.473 0 8.846.292 13.124.883 4.28.59 8.32 1.63 12.13 3.12 3.807 1.49 7.28 3.517 10.42 6.063 3.14 2.55 5.866 5.826 8.184 9.83 2.314 4 4.1 8.79 5.356 14.362 1.256 5.576 1.884 12.125 1.884 19.66 0 5.028-.415 9.52-1.235 13.483-.826 3.966-1.928 7.48-3.3 10.54-1.375 3.06-2.94 5.73-4.71 8.006-1.766 2.276-3.555 4.24-5.357 5.888-4.316 3.767-9.184 6.396-14.598 7.89v.237l35.435 68.05h-32.255l-31.434-61.692h-27.9v61.69h-28.255v-168.003zm62.282 79.7c14.755 0 22.132-9.14 22.132-27.43 0-4.784-.532-8.85-1.593-12.186-1.057-3.337-2.588-6.02-4.594-8.064-2-2.04-4.42-3.512-7.24-4.415-2.83-.903-5.968-1.352-9.42-1.352h-33.32v53.448h34.03zm194.914 91.243c-5.418 0-10.815-.512-16.19-1.527-5.377-1.024-10.482-2.788-15.31-5.297-4.822-2.518-9.315-5.91-13.476-10.187-4.16-4.278-7.77-9.695-10.832-16.245-3.062-6.553-5.46-14.343-7.186-23.37-1.726-9.027-2.588-19.584-2.588-31.667 0-11.617.978-21.8 2.942-30.553 1.964-8.75 4.594-16.303 7.89-22.66 3.3-6.36 7.144-11.598 11.538-15.717 4.394-4.12 9.025-7.394 13.89-9.828 4.868-2.435 9.81-4.14 14.833-5.12 5.02-.98 9.844-1.472 14.48-1.472 7.843 0 14.67.396 20.48 1.178 5.81.783 10.673 1.65 14.6 2.593 4.553 1.1 8.435 2.35 11.656 3.767v20.246c-3.217-.237-6.675-.47-10.36-.707-3.14-.155-6.73-.334-10.775-.53-4.043-.195-8.26-.295-12.652-.295-4.004 0-7.99.16-11.95.47-3.967.318-7.77 1.125-11.42 2.415-3.653 1.293-7.044 3.194-10.186 5.7-3.137 2.513-5.867 5.94-8.18 10.294-2.318 4.35-4.12 9.78-5.418 16.29-1.3 6.507-1.944 14.39-1.944 23.642 0 9.724.666 18.034 2 24.933 1.333 6.9 3.18 12.664 5.53 17.29 2.357 4.63 5.107 8.274 8.24 10.94 3.142 2.668 6.554 4.686 10.245 6.06 3.69 1.37 7.536 2.234 11.535 2.583 4.003.355 8.01.53 12.013.53 5.175 0 9.885-.08 14.125-.238 4.24-.154 7.853-.312 10.837-.466 3.532-.24 6.707-.47 9.537-.71v20.336c-3.458 1.423-7.54 2.642-12.246 3.67-4.077.944-9.083 1.79-15.01 2.538-5.92.737-12.81 1.11-20.653 1.11zm129.336-170.943h101.013v26.257h-72.755v44.148h60.98v25.78h-60.98v45.56h74.752v26.256H6521.32v-168zm-4006.086-339.062c19.453 2.67 40.424 4.95 62.935 6.853 19.453 1.92 41.67 3.43 66.66 4.58 24.978 1.14 51.396 1.716 79.242 1.716 36.995 0 66.372-2.376 88.113-7.144 21.74-4.765 38.335-11.81 49.778-21.15 11.443-9.33 18.783-20.86 22.028-34.58 3.238-13.713 4.865-29.52 4.865-47.434 0-14.093-.67-26.95-2.007-38.577-1.34-11.617-4.49-22.003-9.44-31.15-4.965-9.145-12.018-17.046-21.172-23.717-9.154-6.66-21.74-12.09-37.765-16.29l-166.5-43.43c-26.317-6.86-48.633-16.095-66.94-27.72-18.31-11.62-33.098-26.382-44.345-44.295-11.254-17.905-19.45-39.525-24.603-64.866-5.147-25.332-7.723-55.15-7.723-89.44 0-40.383 6.096-75.344 18.31-104.874 12.203-29.522 29.467-53.814 51.778-72.872 22.316-19.048 49.296-33.145 80.96-42.29 31.658-9.143 66.943-13.716 105.848-13.716 32.42 0 62.08 1.814 88.97 5.43 26.894 3.625 50.067 7.528 69.52 11.714 22.885 4.956 43.674 10.486 62.365 16.574V514.52c-17.164-2.285-35.286-4.378-54.355-6.287-16.407-1.902-34.815-3.52-55.217-4.856-20.41-1.333-41.48-2.003-63.222-2.003-33.95 0-61.792 1.144-83.533 3.43-21.742 2.283-38.906 7.05-51.493 14.288-12.587 7.244-21.366 17.53-26.318 30.862-4.96 13.34-7.44 31.056-7.44 53.146 0 12.2.662 23.06 2.002 32.577 1.338 9.528 4.397 17.913 9.17 25.15 4.772 7.24 11.65 13.526 20.625 18.857 8.977 5.34 21.106 10.29 36.385 14.858l155.296 44.577c19.866 5.716 37.533 11.717 53 18.004 15.466 6.286 28.94 13.718 40.4 22.29 11.46 8.57 21.296 18.574 29.51 30.004 8.21 11.43 14.796 25.058 19.764 40.866 4.973 15.815 8.6 34.39 10.89 55.724 2.288 21.34 3.44 45.916 3.44 73.724 0 43.437-3.727 80.682-11.175 111.736-7.45 31.057-21.485 56.394-42.098 76.013-20.626 19.628-48.984 34.104-85.064 43.433-36.08 9.33-82.766 14-140.046 14-44.297 0-81.052-2-110.266-6-29.215-4-52.987-8.48-71.316-13.43-21.01-5.717-37.62-12.196-49.83-19.436v-100.58zm787.752-693.83h137.318V729.98h350.164V391.638h137.318v815.565h-137.318V857.428h-350.164v349.774H3302.99V391.637zm1247.772 833.282c-35.098 0-67.708-2.485-97.842-7.428-30.134-4.956-57.6-13.62-82.392-26.006-24.8-12.38-46.828-28.865-66.085-49.437-19.265-20.577-35.572-46.58-48.92-78.02-13.357-31.43-23.46-68.673-30.326-111.73-6.86-43.055-10.298-93.16-10.298-150.313 0-85.73 7.62-156.21 22.88-211.46 15.25-55.243 37.38-98.78 66.372-130.595 28.982-31.81 64.267-53.91 105.848-66.297 41.57-12.377 88.488-18.577 140.75-18.577 34.708 0 67.134 2.672 97.268 8.002 30.13 5.343 57.593 14.29 82.392 26.863 24.79 12.574 46.724 29.434 65.798 50.58 19.07 21.147 35.19 47.536 48.35 79.155 13.16 31.633 23.17 69.065 30.04 112.306 6.863 43.25 10.3 93.257 10.3 150.025 0 56.78-3.433 106.69-10.3 149.743-6.865 43.062-16.88 80.3-30.04 111.736-13.158 31.43-29.278 57.533-48.348 78.296-19.077 20.768-41.006 37.245-65.797 49.437-24.8 12.2-52.262 20.863-82.392 26.002-30.122 5.138-62.55 7.71-97.256 7.71zm0-126.304c37.378 0 68.378-4.377 92.978-13.144 24.604-8.76 44.144-24.292 58.65-46.58 14.487-22.29 24.694-52.58 30.607-90.87 5.91-38.294 8.867-86.96 8.867-146.027 0-59.44-2.958-108.394-8.867-146.88-5.917-38.48-16.12-69.055-30.608-91.728-14.506-22.665-34.05-38.48-58.65-47.436-24.6-8.94-55.6-13.43-92.98-13.43-37.39 0-68.47 4.48-93.26 13.43-24.8 8.96-44.446 24.78-58.935 47.44-14.502 22.674-24.705 53.25-30.613 91.73-5.917 38.49-8.867 87.444-8.867 146.88 0 59.065 2.95 107.732 8.867 146.025 5.913 38.295 16.11 68.583 30.612 90.873 14.488 22.287 34.132 37.82 58.93 46.58 24.793 8.766 55.875 13.143 93.262 13.143zm918.782 126.304c-35.098 0-67.708-2.485-97.842-7.428-30.134-4.956-57.6-13.62-82.392-26.006-24.8-12.38-46.828-28.865-66.085-49.437-19.265-20.577-35.572-46.58-48.92-78.02-13.357-31.43-23.46-68.673-30.326-111.73-6.866-43.055-10.3-93.16-10.3-150.313 0-85.73 7.62-156.21 22.882-211.46 15.25-55.243 37.378-98.78 66.372-130.595 28.982-31.81 64.267-53.91 105.848-66.297 41.568-12.377 88.488-18.577 140.75-18.577 34.707 0 67.133 2.672 97.267 8.002 30.13 5.343 57.593 14.29 82.392 26.863 24.79 12.574 46.724 29.434 65.798 50.58 19.07 21.147 35.19 47.536 48.35 79.155 13.16 31.633 23.17 69.065 30.04 112.306 6.862 43.25 10.3 93.257 10.3 150.025 0 56.78-3.434 106.69-10.3 149.743-6.865 43.062-16.88 80.3-30.04 111.736-13.16 31.43-29.28 57.533-48.35 78.296-19.077 20.768-41.006 37.245-65.797 49.437-24.8 12.2-52.262 20.863-82.392 26.002-30.123 5.138-62.55 7.71-97.26 7.71zm0-126.304c37.378 0 68.378-4.377 92.978-13.144 24.604-8.76 44.144-24.292 58.65-46.58 14.487-22.29 24.694-52.58 30.607-90.87 5.904-38.294 8.862-86.96 8.862-146.027 0-59.44-2.958-108.394-8.867-146.88-5.918-38.48-16.12-69.055-30.61-91.728-14.5-22.665-34.044-38.48-58.648-47.436-24.6-8.94-55.597-13.43-92.98-13.43-37.386 0-68.47 4.48-93.26 13.43-24.8 8.96-44.443 24.78-58.932 47.44-14.5 22.674-24.704 53.25-30.61 91.73-5.92 38.49-8.87 87.444-8.87 146.88 0 59.065 2.95 107.732 8.868 146.025 5.912 38.295 16.11 68.583 30.61 90.873 14.49 22.287 34.134 37.82 58.934 46.58 24.79 8.766 55.873 13.143 93.26 13.143zm621.258-706.98h323.842c17.543 0 35.282 1.34 53.21 4 17.927 2.67 35.095 7.715 51.498 15.146 16.394 7.432 31.653 17.43 45.77 30.005 14.11 12.57 26.51 28.674 37.192 48.293 10.673 19.627 18.97 43.345 24.887 71.157 5.91 27.816 8.87 60.393 8.87 97.73 0 37.344-3.24 69.825-9.722 97.442-6.496 27.624-15.263 51.15-26.32 70.58-11.067 19.43-24.028 35.25-38.908 47.433-14.877 12.2-30.714 21.816-47.49 28.86-16.79 7.054-34.046 11.814-51.78 14.29-17.738 2.484-35.19 3.716-52.354 3.716h-181.378v286.905H6090.8v-815.56zm302.67 401.21c20.598 0 37.284-3.43 50.066-10.287 12.775-6.86 22.886-16.38 30.326-28.58 7.436-12.19 12.487-26.48 15.163-42.86 2.667-16.38 4.007-34.1 4.007-53.158 0-18.662-1.34-36.38-4.007-53.152-2.676-16.76-7.723-31.523-15.163-44.293-7.44-12.763-17.55-22.86-30.326-30.293-12.782-7.432-29.468-11.147-50.065-11.147H6228.12v273.76h165.353zm437.69-365.816h27.67c1.98 0 3.915.13 5.808.39 1.894.262 3.683.722 5.367 1.38 1.685.66 3.223 1.558 4.612 2.685 1.39 1.13 2.592 2.578 3.62 4.35 1.022 1.77 1.812 3.89 2.37 6.357.555 2.468.832 5.366.832 8.7 0 2.227-.184 4.215-.547 5.97-.364 1.752-.852 3.31-1.46 4.662-.608 1.354-1.3 2.536-2.085 3.543-.78 1.008-1.57 1.877-2.37 2.606-1.91 1.667-4.064 2.83-6.46 3.492v.105l15.683 30.118h-14.276l-13.914-27.304h-12.348v27.303h-12.506V427.03zm27.567 35.274c6.53 0 9.79-4.045 9.79-12.14 0-2.117-.234-3.917-.704-5.393s-1.146-2.66-2.034-3.565c-.885-.903-1.955-1.555-3.203-1.955-1.253-.4-2.64-.6-4.17-.6h-14.746v23.656h15.062z"/><path fill="#505050" d="M6853.684 394.375c-39.365 0-71.522 31.904-71.522 71.1s32.157 71.1 71.522 71.1c39.365 0 71.52-31.904 71.52-71.1s-32.155-71.1-71.52-71.1zm0 17.5c29.97 0 54.02 23.925 54.02 53.6 0 29.674-24.05 53.6-54.02 53.6-29.97 0-54.022-23.926-54.022-53.6 0-29.675 24.05-53.6 54.022-53.6z"/></svg>