<?xml version="1.0" encoding="utf-8"?>
<!-- Generator: Adobe Illustrator 18.1.1, SVG Export Plug-In . SVG Version: 6.00 Build 0)  -->
<!DOCTYPE svg PUBLIC "-//W3C//DTD SVG 1.1//EN" "http://www.w3.org/Graphics/SVG/1.1/DTD/svg11.dtd">
<svg version="1.1" id="Layer_1" xmlns="http://www.w3.org/2000/svg" xmlns:xlink="http://www.w3.org/1999/xlink" x="0px" y="0px"
	 viewBox="0 0 600 400" enable-background="new 0 0 600 400" xml:space="preserve">
<g id="text_xA0_Clipping_Path">
	<g>
		<path fill="#DDDDDD" d="M561.5,166.4c-1.1-2.6-2.4-4.6-3.9-6.1L532.4,135c-1.5-1.5-3.6-2.8-6.1-3.9c-2.6-1.1-5-1.6-7.1-1.6h-72.5
			c-2.2,0-4,0.8-5.5,2.3c-1.5,1.5-2.3,3.3-2.3,5.5v129.3c0,2.2,0.8,4,2.3,5.5c1.5,1.5,3.3,2.3,5.5,2.3h108.7c2.2,0,4-0.8,5.5-2.3
			c1.5-1.5,2.3-3.3,2.3-5.5v-93.1C563.1,171.3,562.6,169,561.5,166.4z M521.7,140.5c1.6,0.5,2.7,1.1,3.3,1.8l25.3,25.3
			c0.6,0.6,1.2,1.8,1.8,3.3h-30.4V140.5z M552.8,264H449.2V139.9h62.1v33.6c0,2.2,0.8,4,2.3,5.5c1.5,1.5,3.3,2.3,5.5,2.3h33.7V264z
			 M470.7,192.3c-0.5,0.5-0.7,1.1-0.7,1.9v5.2c0,0.8,0.2,1.4,0.7,1.9s1.1,0.7,1.9,0.7h57c0.8,0,1.4-0.2,1.9-0.7s0.7-1.1,0.7-1.9
			v-5.2c0-0.8-0.2-1.4-0.7-1.9s-1.1-0.7-1.9-0.7h-57C471.8,191.6,471.1,191.8,470.7,192.3z M529.5,233h-57c-0.8,0-1.4,0.2-1.9,0.7
			c-0.5,0.5-0.7,1.1-0.7,1.9v5.2c0,0.8,0.2,1.4,0.7,1.9s1.1,0.7,1.9,0.7h57c0.8,0,1.4-0.2,1.9-0.7s0.7-1.1,0.7-1.9v-5.2
			c0-0.8-0.2-1.4-0.7-1.9C530.9,233.2,530.2,233,529.5,233z M529.5,212.3h-57c-0.8,0-1.4,0.2-1.9,0.7s-0.7,1.1-0.7,1.9v5.2
			c0,0.8,0.2,1.4,0.7,1.9s1.1,0.7,1.9,0.7h57c0.8,0,1.4-0.2,1.9-0.7s0.7-1.1,0.7-1.9v-5.2c0-0.8-0.2-1.4-0.7-1.9
			S530.2,212.3,529.5,212.3z"/>
	</g>
</g>
<g id="pdf_xA0_Clipping_Path">
	<g>
		<path fill="#DDDDDD" d="M109.3,216.1c-4.9-4-8.8-10.4-11.8-19.2c0.6-3.7,1-8.9,1.1-15.5v-2.4c0-0.3,0-0.5-0.1-0.6
			c0.1-0.1,0.2-0.3,0.3-0.6c0.5-2.5,0.2-4.4-0.7-5.5c-0.6-0.8-1.6-1.2-2.8-1.2h-1.8c-1.7,0-2.8,1.1-3.4,3.2
			c-0.7,2.7-0.9,6.1-0.5,10.3c0.4,4.2,1.2,8.5,2.5,12.9c-1.9,6.8-4.7,13.8-8.4,21.2c-3,6-5.9,11.3-8.7,15.9c0-0.1-0.1-0.2-0.2-0.3
			c-0.5-0.8-1.1-1-1.9-0.5c-4.6,2.4-8.1,5-10.7,7.8c-2.5,2.8-4,5.2-4.5,7.4c-0.2,1.4-0.1,2.4,0.5,2.9c0.3,0.2,0.4,0.4,0.5,0.4l1.9,1
			c0.7,0.4,1.5,0.6,2.3,0.6c4.8,0,11.3-7.1,19.6-21.2c9.2-3.2,19.8-5.4,31.7-6.7c3.4,1.8,6.9,3.2,10.5,4.3c3.6,1.1,6.7,1.6,9.3,1.6
			c3.5,0,5.4-1,5.7-3.1v-0.1c0.1-0.1,0.1-0.1,0.2-0.2c0.1-0.1,0.1-0.1,0.1-0.2c0.8-1.6,0.7-3-0.2-4.2c-1.6-2.6-6.4-4-14.3-4
			c-3.1,0-6.3,0.2-9.5,0.6C113.4,219,111.1,217.5,109.3,216.1z M62.7,249.3c0.7-1.6,2-3.6,4-6c2-2.4,4.3-4.6,7.1-6.8
			C69.2,243.7,65.5,248,62.7,249.3z M94.9,174.9v-0.2c0.1-0.1,0.1-0.1,0.1-0.2c0.6,0.8,1,1.7,1.1,2.9c0,0.1,0,0.1,0,0.1
			c0,0,0,0.1,0,0.1c0,0.1,0,0.1,0.1,0.2c-0.2,0.2-0.3,0.4-0.3,0.6c-0.4,2.2-0.6,3.3-0.6,3.5c-0.3,2-0.5,3.2-0.6,3.6
			C94.1,180.7,94.1,177.2,94.9,174.9z M84.9,228.3c0.8-1.5,2-3.7,3.6-6.7c3-6,5.3-11.3,6.7-15.9c2.8,5.9,6.2,10.6,10.3,14.2
			c0.3,0.3,0.7,0.6,1.3,1.1c0.6,0.5,0.9,0.7,1.1,0.8C99.8,223.3,92.2,225.4,84.9,228.3z M137.2,227.1c0.1,0.1,0.2,0.2,0.2,0.2
			c-0.2,0.1-0.7,0.1-1.5,0.1c-2.6,0-5.9-0.8-10-2.3C132.1,225.1,135.9,225.8,137.2,227.1z M159.6,166.4c-1.1-2.6-2.4-4.6-3.9-6.1
			L130.5,135c-1.5-1.5-3.6-2.8-6.1-3.9c-2.6-1.1-5-1.6-7.1-1.6H44.8c-2.2,0-4,0.8-5.5,2.3c-1.5,1.5-2.3,3.3-2.3,5.5v129.3
			c0,2.2,0.8,4,2.3,5.5c1.5,1.5,3.3,2.3,5.5,2.3h108.7c2.2,0,4-0.8,5.5-2.3c1.5-1.5,2.3-3.3,2.3-5.5v-93.1
			C161.3,171.3,160.7,169,159.6,166.4z M119.8,140.5c1.6,0.5,2.7,1.1,3.3,1.8l25.3,25.3c0.6,0.6,1.2,1.8,1.8,3.3h-30.4V140.5z
			 M150.9,264H47.4V139.9h62.1v33.6c0,2.2,0.8,4,2.3,5.5c1.5,1.5,3.3,2.3,5.5,2.3h33.7V264z"/>
	</g>
</g>
<g id="image_xA0_Clipping_Path">
	<g>
		<path fill="#DDDDDD" d="M250.7,220.7c8.2,0,15.2-2.9,21-8.6c5.8-5.7,8.6-12.7,8.6-20.9c0-8.2-2.9-15.2-8.6-20.9
			c-5.8-5.7-12.7-8.6-21-8.6c-8.2,0-15.2,2.9-21,8.6c-5.8,5.8-8.6,12.7-8.6,20.9c0,8.2,2.9,15.2,8.6,20.9
			C235.5,217.8,242.5,220.7,250.7,220.7z M270.5,260.1l-19.7-19.7L221.1,270v29.6H379v-49.3L329.7,201L270.5,260.1z M415.4,133.2
			c-2.1-4.9-4.5-8.8-7.4-11.7l-48.1-48.1c-2.9-2.9-6.8-5.3-11.7-7.4c-4.9-2.1-9.5-3.1-13.6-3.1H196.4c-4.1,0-7.6,1.4-10.5,4.3
			c-2.9,2.9-4.3,6.4-4.3,10.5v246.4c0,4.1,1.4,7.6,4.3,10.5c2.9,2.9,6.4,4.3,10.5,4.3h207.2c4.1,0,7.6-1.4,10.5-4.3
			c2.9-2.9,4.3-6.4,4.3-10.5V146.8C418.5,142.7,417.5,138.2,415.4,133.2z M339.5,83.9c3,1,5.1,2.2,6.3,3.4l48.3,48.2
			c1.2,1.2,2.4,3.3,3.4,6.3h-58V83.9z M398.7,319.3H201.4V82.7h118.4v64.1c0,4.1,1.4,7.6,4.3,10.5c2.9,2.9,6.4,4.3,10.5,4.3h64.1
			V319.3z"/>
	</g>
</g>
</svg>
