<?xml version="1.0" encoding="UTF-8" standalone="no"?><!DOCTYPE svg PUBLIC "-//W3C//DTD SVG 1.1//EN" "http://www.w3.org/Graphics/SVG/1.1/DTD/svg11.dtd"><svg width="100%" height="100%" viewBox="0 0 512 512" version="1.1" xmlns="http://www.w3.org/2000/svg" xmlns:xlink="http://www.w3.org/1999/xlink" xml:space="preserve" xmlns:serif="http://www.serif.com/" style="fill-rule:evenodd;clip-rule:evenodd;stroke-linejoin:round;stroke-miterlimit:1.41421;"><rect id="logo-icon" x="0" y="0" width="512" height="512" style="fill:none;"/><clipPath id="_clip1"><rect x="0" y="0" width="512" height="512"/></clipPath><g clip-path="url(#_clip1)"><g><circle cx="256.441" cy="256.516" r="256" style="fill:#07b0f2;"/><path d="M272.973,288.869l-57.258,0c-53.447,0 -96.774,-43.454 -96.774,-97.058c0,0 0,0 0,0c0,-53.605 43.327,-97.059 96.774,-97.059c65.241,0 142.326,0 158.871,0c1.781,0 3.226,1.448 3.226,3.235c0,11.045 0,47.19 0,58.235c0,0.858 -0.34,1.681 -0.945,2.288c-0.605,0.607 -1.426,0.948 -2.281,0.948l-134.678,0l0,-19.925c0,-0.632 -0.367,-1.207 -0.941,-1.471c-0.573,-0.263 -1.247,-0.167 -1.725,0.246c-10.947,9.47 -52.246,45.195 -60.434,52.278c-0.355,0.307 -0.559,0.754 -0.559,1.225c0,0.47 0.204,0.917 0.559,1.225c8.188,7.083 49.487,42.808 60.434,52.277c0.478,0.413 1.152,0.509 1.725,0.246c0.574,-0.264 0.941,-0.838 0.941,-1.471l0,-19.924l57.258,0c53.447,0 96.775,43.454 96.775,97.058c0,0 0,0 0,0c0,53.604 -43.328,97.059 -96.775,97.059c-67.707,0 -148.171,0 -160.483,0c-0.891,0 -1.613,-0.724 -1.613,-1.617c0,-8.969 0,-52.503 0,-61.471c0,-0.429 0.17,-0.841 0.472,-1.144c0.302,-0.303 0.713,-0.474 1.141,-0.474l136.29,0l0,19.925c0,0.632 0.368,1.207 0.941,1.47c0.574,0.264 1.248,0.168 1.725,-0.245c10.947,-9.47 52.246,-45.195 60.434,-52.278c0.355,-0.307 0.559,-0.754 0.559,-1.225c0,-0.47 -0.204,-0.917 -0.559,-1.225c-8.188,-7.083 -49.487,-42.808 -60.434,-52.277c-0.477,-0.413 -1.151,-0.509 -1.725,-0.246c-0.573,0.264 -0.941,0.838 -0.941,1.471l0,19.924Z" style="fill:#fff;"/></g></g></svg>