<svg xmlns="http://www.w3.org/2000/svg" viewBox="0 0 600 400"><path fill="#DDD" d="M561.5 166.4c-1.1-2.6-2.4-4.6-3.9-6.1L532.4 135c-1.5-1.5-3.6-2.8-6.1-3.9-2.6-1.1-5-1.6-7.1-1.6h-72.5c-2.2 0-4 .8-5.5 2.3-1.5 1.5-2.3 3.3-2.3 5.5v129.3c0 2.2.8 4 2.3 5.5 1.5 1.5 3.3 2.3 5.5 2.3h108.7c2.2 0 4-.8 5.5-2.3 1.5-1.5 2.3-3.3 2.3-5.5v-93.1c-.1-2.2-.6-4.5-1.7-7.1zm-39.8-25.9c1.6.5 2.7 1.1 3.3 1.8l25.3 25.3c.6.6 1.2 1.8 1.8 3.3h-30.4v-30.4zM552.8 264H449.2V139.9h62.1v33.6c0 2.2.8 4 2.3 5.5 1.5 1.5 3.3 2.3 5.5 2.3h33.7V264zm-82.1-71.7c-.5.5-.7 1.1-.7 1.9v5.2c0 .8.2 1.4.7 1.9s1.1.7 1.9.7h57c.8 0 1.4-.2 1.9-.7s.7-1.1.7-1.9v-5.2c0-.8-.2-1.4-.7-1.9s-1.1-.7-1.9-.7h-57c-.8 0-1.5.2-1.9.7zm58.8 40.7h-57c-.8 0-1.4.2-1.9.7-.5.5-.7 1.1-.7 1.9v5.2c0 .8.2 1.4.7 1.9s1.1.7 1.9.7h57c.8 0 1.4-.2 1.9-.7s.7-1.1.7-1.9v-5.2c0-.8-.2-1.4-.7-1.9-.5-.5-1.2-.7-1.9-.7zm0-20.7h-57c-.8 0-1.4.2-1.9.7s-.7 1.1-.7 1.9v5.2c0 .8.2 1.4.7 1.9s1.1.7 1.9.7h57c.8 0 1.4-.2 1.9-.7s.7-1.1.7-1.9v-5.2c0-.8-.2-1.4-.7-1.9s-1.2-.7-1.9-.7zM109.3 216.1c-4.9-4-8.8-10.4-11.8-19.2.6-3.7 1-8.9 1.1-15.5V179c0-.3 0-.5-.1-.6.1-.1.2-.3.3-.6.5-2.5.2-4.4-.7-5.5-.6-.8-1.6-1.2-2.8-1.2h-1.8c-1.7 0-2.8 1.1-3.4 3.2-.7 2.7-.9 6.1-.5 10.3.4 4.2 1.2 8.5 2.5 12.9-1.9 6.8-4.7 13.8-8.4 21.2-3 6-5.9 11.3-8.7 15.9 0-.1-.1-.2-.2-.3-.5-.8-1.1-1-1.9-.5-4.6 2.4-8.1 5-10.7 7.8-2.5 2.8-4 5.2-4.5 7.4-.2 1.4-.1 2.4.5 2.9.3.2.4.4.5.4l1.9 1c.7.4 1.5.6 2.3.6 4.8 0 11.3-7.1 19.6-21.2 9.2-3.2 19.8-5.4 31.7-6.7 3.4 1.8 6.9 3.2 10.5 4.3 3.6 1.1 6.7 1.6 9.3 1.6 3.5 0 5.4-1 5.7-3.1v-.1l.2-.2c.1-.1.1-.1.1-.2.8-1.6.7-3-.2-4.2-1.6-2.6-6.4-4-14.3-4-3.1 0-6.3.2-9.5.6-2.6-1.7-4.9-3.2-6.7-4.6zm-46.6 33.2c.7-1.6 2-3.6 4-6s4.3-4.6 7.1-6.8c-4.6 7.2-8.3 11.5-11.1 12.8zm32.2-74.4v-.2c.1-.1.1-.1.1-.2.6.8 1 1.7 1.1 2.9v.2c0 .1 0 .1.1.2-.2.2-.3.4-.3.6-.4 2.2-.6 3.3-.6 3.5-.3 2-.5 3.2-.6 3.6-.6-4.8-.6-8.3.2-10.6zm-10 53.4c.8-1.5 2-3.7 3.6-6.7 3-6 5.3-11.3 6.7-15.9 2.8 5.9 6.2 10.6 10.3 14.2.3.3.7.6 1.3 1.1.6.5.9.7 1.1.8-8.1 1.5-15.7 3.6-23 6.5zm52.3-1.2l.2.2c-.2.1-.7.1-1.5.1-2.6 0-5.9-.8-10-2.3 6.2 0 10 .7 11.3 2zm22.4-60.7c-1.1-2.6-2.4-4.6-3.9-6.1L130.5 135c-1.5-1.5-3.6-2.8-6.1-3.9-2.6-1.1-5-1.6-7.1-1.6H44.8c-2.2 0-4 .8-5.5 2.3-1.5 1.5-2.3 3.3-2.3 5.5v129.3c0 2.2.8 4 2.3 5.5 1.5 1.5 3.3 2.3 5.5 2.3h108.7c2.2 0 4-.8 5.5-2.3 1.5-1.5 2.3-3.3 2.3-5.5v-93.1c0-2.2-.6-4.5-1.7-7.1zm-39.8-25.9c1.6.5 2.7 1.1 3.3 1.8l25.3 25.3c.6.6 1.2 1.8 1.8 3.3h-30.4v-30.4zM150.9 264H47.4V139.9h62.1v33.6c0 2.2.8 4 2.3 5.5 1.5 1.5 3.3 2.3 5.5 2.3H151V264zM250.7 220.7c8.2 0 15.2-2.9 21-8.6 5.8-5.7 8.6-12.7 8.6-20.9s-2.9-15.2-8.6-20.9c-5.8-5.7-12.7-8.6-21-8.6-8.2 0-15.2 2.9-21 8.6-5.8 5.8-8.6 12.7-8.6 20.9s2.9 15.2 8.6 20.9c5.8 5.7 12.8 8.6 21 8.6zm19.8 39.4l-19.7-19.7-29.7 29.6v29.6H379v-49.3L329.7 201l-59.2 59.1zm144.9-126.9c-2.1-4.9-4.5-8.8-7.4-11.7l-48.1-48.1c-2.9-2.9-6.8-5.3-11.7-7.4-4.9-2.1-9.5-3.1-13.6-3.1H196.4c-4.1 0-7.6 1.4-10.5 4.3-2.9 2.9-4.3 6.4-4.3 10.5v246.4c0 4.1 1.4 7.6 4.3 10.5 2.9 2.9 6.4 4.3 10.5 4.3h207.2c4.1 0 7.6-1.4 10.5-4.3 2.9-2.9 4.3-6.4 4.3-10.5V146.8c.1-4.1-.9-8.6-3-13.6zm-75.9-49.3c3 1 5.1 2.2 6.3 3.4l48.3 48.2c1.2 1.2 2.4 3.3 3.4 6.3h-58V83.9zm59.2 235.4H201.4V82.7h118.4v64.1c0 4.1 1.4 7.6 4.3 10.5 2.9 2.9 6.4 4.3 10.5 4.3h64.1v157.7z"/></svg>