<svg xmlns="http://www.w3.org/2000/svg" viewBox="0 0 1594.1 476.4"><circle fill-rule="evenodd" clip-rule="evenodd" fill="#FFF" cx="238.7" cy="237.9" r="207.3"/><path fill-rule="evenodd" clip-rule="evenodd" fill="#1BAB95" d="M238.5 0C106.8 0 0 106.6 0 238.2s106.8 238.2 238.5 238.2S477 369.8 477 238.2 370.1 0 238.5 0zm131.9 309.5c0 28.1-6.6 48.8-19.8 62-13.2 13.2-33.9 19.8-62 19.8-14.6 0-30.1-.3-46.5-.9l-39.6-1.7c-29.3-1.4-59.6-3.4-90.9-6v-58.1c78.7 4.3 156.8 6.5 156.8 6.5v24.2l64.7-56.5-64.7-53.3.4 25.3h-74.9c-30.1 0-52-6.8-65.7-20.5-13.6-13.6-20.5-35.5-20.5-65.7v-12.9c0-30.2 6.8-52 20.5-65.7 13.6-13.6 35.5-20.5 65.7-20.5H345v60.3H224.8l-.1-23.1-63 54.9 63 53.3-.1-24.8h63.9c28.1 0 48.8 6.6 62 19.8 13.2 13.2 19.8 33.9 19.8 62v21.6z"/><g fill-rule="evenodd" clip-rule="evenodd" fill="#17907D"><path d="M345 145.8H224.8l-.1-23.1-63 54.9 63 53.3-.1-24.8h63.9c28.1 0 48.8 6.6 62 19.8 13.2 13.2 19.8 33.9 19.8 62v21.5c0 28.1-6.6 48.8-19.8 62-13.2 13.2-33.9 19.8-62 19.8-14.6 0-30.1-.3-46.5-.9l-39.6-1.7c-29.3-1.4-59.6-3.4-90.9-6l90.8 90.9c11.8 1.8 23.8 2.7 36.1 2.7 131.7 0 238.5-106.6 238.5-238.2 0-8.3-.4-16.5-1.3-24.5L345 86v59.8z"/><path d="M128.2 250.3c-.1-.1-.2-.3-.4-.4v.4l78.7 78.7c36.4 1.4 61.9 2.1 61.9 2.1v24.2l64.7-56.5-64.7-53.3.4 25.3h-74.9c-30.2-.1-52.1-6.9-65.7-20.5z"/></g><path fill="#FFF" d="M603.8 306.5c4.7.6 9.7 1.2 15.1 1.6 4.7.5 10 .8 16 1.1 6 .3 12.4.4 19 .4 8.9 0 16-.6 21.2-1.7 5.2-1.1 9.2-2.8 12-5.1 2.8-2.2 4.5-5 5.3-8.3.8-3.3 1.2-7.1 1.2-11.4 0-3.4-.2-6.5-.5-9.3-.3-2.8-1.1-5.3-2.3-7.5-1.2-2.2-2.9-4.1-5.1-5.7-2.2-1.6-5.2-2.9-9.1-3.9l-40-10.4c-6.3-1.6-11.7-3.9-16.1-6.7-4.4-2.8-8-6.3-10.7-10.6-2.7-4.3-4.7-9.5-5.9-15.6-1.2-6.1-1.9-13.3-1.9-21.5 0-9.7 1.5-18.1 4.4-25.2 2.9-7.1 7.1-12.9 12.4-17.5 5.4-4.6 11.8-8 19.5-10.2 7.6-2.2 16.1-3.3 25.4-3.3 7.8 0 14.9.4 21.4 1.3 6.5.9 12 1.8 16.7 2.8 5.5 1.2 10.5 2.5 15 4v25.4c-4.1-.5-8.5-1.1-13.1-1.5-3.9-.5-8.4-.8-13.3-1.2-4.9-.3-10-.5-15.2-.5-8.2 0-14.9.3-20.1.8-5.2.5-9.3 1.7-12.4 3.4-3 1.7-5.1 4.2-6.3 7.4-1.2 3.2-1.8 7.5-1.8 12.8 0 2.9.2 5.5.5 7.8s1.1 4.3 2.2 6c1.1 1.7 2.8 3.3 5 4.5 2.2 1.3 5.1 2.5 8.7 3.6l37.3 10.7c4.8 1.4 9 2.8 12.7 4.3 3.7 1.5 7 3.3 9.7 5.4 2.8 2.1 5.1 4.5 7.1 7.2s3.6 6 4.8 9.8c1.2 3.8 2.1 8.3 2.6 13.4s.8 11 .8 17.7c0 10.4-.9 19.4-2.7 26.9-1.8 7.5-5.2 13.6-10.1 18.3-5 4.7-11.8 8.2-20.4 10.4s-19.9 3.4-33.7 3.4c-10.6 0-19.5-.5-26.5-1.4-7-1-12.7-2-17.1-3.2-5-1.4-9-2.9-12-4.7v-24zm189.3-166.7h33v81.3h84.2v-81.3h33v196h-33v-84.1h-84.2v84.1h-33v-196zM1092.9 340c-8.4 0-16.3-.6-23.5-1.8-7.2-1.2-13.8-3.3-19.8-6.2-6-3-11.3-6.9-15.9-11.9-4.6-4.9-8.5-11.2-11.8-18.7-3.2-7.6-5.6-16.5-7.3-26.9-1.7-10.3-2.5-22.4-2.5-36.1 0-20.6 1.8-37.5 5.5-50.8 3.7-13.3 9-23.7 16-31.4 7-7.6 15.4-13 25.4-15.9 10-3 21.3-4.5 33.8-4.5 8.3 0 16.1.6 23.4 1.9 7.2 1.3 13.8 3.4 19.8 6.5 6 3 11.2 7.1 15.8 12.2 4.6 5.1 8.5 11.4 11.6 19 3.2 7.6 5.6 16.6 7.2 27 1.7 10.4 2.5 22.4 2.5 36.1 0 13.6-.8 25.6-2.5 36-1.7 10.3-4.1 19.3-7.2 26.9-3.2 7.6-7 13.8-11.6 18.8s-9.9 9-15.8 11.9c-6 2.9-12.6 5-19.8 6.2-7.1 1.1-14.9 1.7-23.3 1.7zm0-30.3c9 0 16.4-1.1 22.3-3.2 5.9-2.1 10.6-5.8 14.1-11.2 3.5-5.4 5.9-12.6 7.4-21.8 1.4-9.2 2.1-20.9 2.1-35.1 0-14.3-.7-26-2.1-35.3-1.4-9.2-3.9-16.6-7.4-22-3.5-5.4-8.2-9.2-14.1-11.4-5.9-2.2-13.4-3.2-22.3-3.2-9 0-16.5 1.1-22.4 3.2-6 2.2-10.7 6-14.2 11.4s-5.9 12.8-7.4 22c-1.4 9.2-2.1 21-2.1 35.3 0 14.2.7 25.9 2.1 35.1 1.4 9.2 3.9 16.5 7.4 21.8 3.5 5.4 8.2 9.1 14.2 11.2 6 2.1 13.5 3.2 22.4 3.2zm220.8 30.3c-8.4 0-16.3-.6-23.5-1.8-7.2-1.2-13.8-3.3-19.8-6.2-6-3-11.3-6.9-15.9-11.9-4.6-4.9-8.5-11.2-11.8-18.7-3.2-7.6-5.6-16.5-7.3-26.9-1.7-10.3-2.5-22.4-2.5-36.1 0-20.6 1.8-37.5 5.5-50.8 3.7-13.3 9-23.7 15.9-31.4 7-7.6 15.4-13 25.4-15.9 10-3 21.3-4.5 33.8-4.5 8.3 0 16.1.6 23.4 1.9 7.2 1.3 13.8 3.4 19.8 6.5 6 3 11.2 7.1 15.8 12.2 4.6 5.1 8.5 11.4 11.6 19 3.2 7.6 5.6 16.6 7.2 27 1.7 10.4 2.5 22.4 2.5 36.1 0 13.6-.8 25.6-2.5 36-1.7 10.3-4.1 19.3-7.2 26.9-3.2 7.6-7 13.8-11.6 18.8s-9.9 9-15.8 11.9c-6 2.9-12.6 5-19.8 6.2-7 1.1-14.8 1.7-23.2 1.7zm0-30.3c9 0 16.4-1.1 22.3-3.2 5.9-2.1 10.6-5.8 14.1-11.2 3.5-5.4 5.9-12.6 7.4-21.8 1.4-9.2 2.1-20.9 2.1-35.1 0-14.3-.7-26-2.1-35.3-1.4-9.2-3.9-16.6-7.4-22-3.5-5.4-8.2-9.2-14.1-11.4-5.9-2.2-13.4-3.2-22.3-3.2-9 0-16.5 1.1-22.4 3.2-6 2.2-10.7 6-14.2 11.4s-5.9 12.8-7.4 22c-1.4 9.2-2.1 21-2.1 35.3 0 14.2.7 25.9 2.1 35.1 1.4 9.2 3.9 16.5 7.4 21.8 3.5 5.4 8.2 9.1 14.2 11.2 6 2.1 13.5 3.2 22.4 3.2zM1463 139.8h77.8c4.2 0 8.5.3 12.8 1 4.3.6 8.4 1.9 12.4 3.6 3.9 1.8 7.6 4.2 11 7.2 3.4 3 6.4 6.9 8.9 11.6 2.6 4.7 4.6 10.4 6 17.1 1.4 6.7 2.1 14.5 2.1 23.5s-.8 16.8-2.3 23.4c-1.6 6.6-3.7 12.3-6.3 17-2.7 4.7-5.8 8.5-9.4 11.4-3.6 2.9-7.4 5.2-11.4 6.9-4 1.7-8.2 2.8-12.4 3.4-4.3.6-8.5.9-12.6.9H1496v69h-33v-196zm72.8 96.4c5 0 9-.8 12-2.5 3.1-1.6 5.5-3.9 7.3-6.9 1.8-2.9 3-6.4 3.6-10.3.6-3.9 1-8.2 1-12.8 0-4.5-.3-8.7-1-12.8-.6-4-1.9-7.6-3.6-10.6-1.8-3.1-4.2-5.5-7.3-7.3-3.1-1.8-7.1-2.7-12-2.7H1496v65.8h39.8z"/></svg>