<?xml version="1.0" encoding="UTF-8" standalone="no"?><!DOCTYPE svg PUBLIC "-//W3C//DTD SVG 1.1//EN" "http://www.w3.org/Graphics/SVG/1.1/DTD/svg11.dtd"><svg width="100%" height="100%" viewBox="0 0 1747 512" version="1.1" xmlns="http://www.w3.org/2000/svg" xmlns:xlink="http://www.w3.org/1999/xlink" xml:space="preserve" xmlns:serif="http://www.serif.com/" style="fill-rule:evenodd;clip-rule:evenodd;stroke-linejoin:round;stroke-miterlimit:1.41421;"><rect id="logo-text" x="0" y="0" width="1746.02" height="512" style="fill:none;"/><clipPath id="_clip1"><rect x="0" y="0" width="1746.02" height="512"/></clipPath><g clip-path="url(#_clip1)"><g><circle cx="256.441" cy="256.516" r="256" style="fill:#07b0f2;"/><path d="M272.973,288.869l-57.258,0c-53.447,0 -96.774,-43.454 -96.774,-97.058c0,0 0,0 0,0c0,-53.605 43.327,-97.059 96.774,-97.059c65.241,0 142.326,0 158.871,0c1.781,0 3.226,1.448 3.226,3.235c0,11.045 0,47.19 0,58.235c0,0.858 -0.34,1.681 -0.945,2.288c-0.605,0.607 -1.426,0.948 -2.281,0.948l-134.678,0l0,-19.925c0,-0.632 -0.367,-1.207 -0.941,-1.471c-0.573,-0.263 -1.247,-0.167 -1.725,0.246c-10.947,9.47 -52.246,45.195 -60.434,52.278c-0.355,0.307 -0.559,0.754 -0.559,1.225c0,0.47 0.204,0.917 0.559,1.225c8.188,7.083 49.487,42.808 60.434,52.277c0.478,0.413 1.152,0.509 1.725,0.246c0.574,-0.264 0.941,-0.838 0.941,-1.471l0,-19.924l57.258,0c53.447,0 96.775,43.454 96.775,97.058c0,0 0,0 0,0c0,53.604 -43.328,97.059 -96.775,97.059c-67.707,0 -148.171,0 -160.483,0c-0.891,0 -1.613,-0.724 -1.613,-1.617c0,-8.969 0,-52.503 0,-61.471c0,-0.429 0.17,-0.841 0.472,-1.144c0.302,-0.303 0.713,-0.474 1.141,-0.474l136.29,0l0,19.925c0,0.632 0.368,1.207 0.941,1.47c0.574,0.264 1.248,0.168 1.725,-0.245c10.947,-9.47 52.246,-45.195 60.434,-52.278c0.355,-0.307 0.559,-0.754 0.559,-1.225c0,-0.47 -0.204,-0.917 -0.559,-1.225c-8.188,-7.083 -49.487,-42.808 -60.434,-52.277c-0.477,-0.413 -1.151,-0.509 -1.725,-0.246c-0.573,0.264 -0.941,0.838 -0.941,1.471l0,19.924Z" style="fill:#fff;"/></g><g><path d="M618.033,323.21l110.151,0c15.697,0 28.69,-6.339 28.69,-25.681c0,-19.343 -12.993,-25.657 -28.69,-25.657l-51.295,0c-39.554,0 -64.889,-15.709 -64.889,-61.936c0,-47.128 25.335,-61.936 64.889,-61.936l116.184,0l0,36.255l-110.151,0c-15.696,0 -28.689,6.339 -28.689,25.681c0,19.343 12.993,25.682 28.689,25.682l51.296,0c39.554,0 64.914,15.709 64.914,61.911c0,47.128 -25.36,61.936 -64.914,61.936l-116.185,0l0,-36.255Z" style="fill:#041e40;fill-rule:nonzero;"/><path d="M830.8,148l42.258,0l0,87.618l96.582,0l0,-87.618l42.258,0l0,211.465l-42.258,0l0,-87.593l-96.582,0l0,87.593l-42.258,0l0,-211.465Z" style="fill:#041e40;fill-rule:nonzero;"/><path d="M830.8,148l42.258,0l0,87.618l96.582,0l0,-87.618l42.258,0l0,211.465l-42.258,0l0,-87.593l-96.582,0l0,87.593l-42.258,0l0,-211.465Z" style="fill:#041e40;fill-rule:nonzero;"/><path d="M1045.09,148l42.258,0l0,123.872c0,42.895 24.158,55.873 54.324,55.873c29.591,0 54.35,-12.978 54.35,-55.873l0,-123.872l42.258,0l0,123.872c0,69.779 -43.786,92.128 -96.608,92.128c-53.423,0 -96.582,-22.349 -96.582,-92.128l0,-123.872Z" style="fill:#041e40;fill-rule:nonzero;"/><path d="M1268.45,148l42.258,0l0,123.872c0,42.895 24.158,55.873 54.324,55.873c29.591,0 54.325,-12.978 54.325,-55.873l0,-123.872l42.258,0l0,123.872c0,69.779 -43.76,92.128 -96.583,92.128c-53.423,0 -96.582,-22.349 -96.582,-92.128l0,-123.872Z" style="fill:#041e40;fill-rule:nonzero;"/><path d="M1494.81,148l122.243,0c38.953,0 70.947,18.14 70.947,69.478c0,55.597 -31.994,72.509 -70.947,72.509l-79.985,0l0,69.478l-42.258,0l0,-211.465Zm122.243,105.733c15.696,0 28.689,-8.444 28.689,-36.255c0,-24.153 -12.993,-33.223 -28.689,-33.223l-79.985,0l0,69.478l79.985,0Z" style="fill:#041e40;fill-rule:nonzero;"/></g></g></svg>