<svg xmlns="http://www.w3.org/2000/svg" width="1987.125" height="1984.969"><path d="M993.563 0c548.73 0 993.562 444.35 993.562 992.484s-444.833 992.485-993.562 992.485C444.833 1984.97 0 1540.615 0 992.48S444.833 0 993.563 0z" fill="#1bab95"/><path d="M1436.5 356.563L533.334 499.836v542.68l328.285 328.256-396.12 223.79 378.79 379.27c48.69 7.328 98.535 11.137 149.27 11.137 548.73 0 993.563-444.354 993.563-992.488 0-30.237-1.357-60.158-4.008-89.707L1436.5 356.563z" fill="#17907d"/><path d="M936.31 511.387l.274 96.268h500.766V356.398H807.59c-125.594 0-216.816 28.435-273.613 85.248-56.826 56.84-85.225 148.062-85.225 273.69v53.84c0 125.63 28.4 216.88 85.225 273.692 56.797 56.842 148.02 85.248 273.613 85.248h312.065l-1.473-105.364 269.44 222.04-269.44 235.497v-100.93s-325.562-8.963-653.282-26.91v242.284c130.36 10.767 256.57 19.124 378.574 25.125l165.065 7.18c68.176 2.38 132.77 3.587 193.77 3.587 117.21 0 203.33-27.51 258.363-82.556 55.003-55.017 82.533-141.163 82.533-258.435V1199.9c0-117.243-27.53-203.39-82.533-258.435-55.032-55.02-141.152-82.556-258.363-82.556h-266.3l.3 103.283-262.706-222.04 262.705-228.77z" fill="#fff"/></svg>