<svg xmlns="http://www.w3.org/2000/svg" height="1986" width="6935"><path d="M993.837.325c548.73 0 993.562 444.35 993.562 992.484 0 548.13-444.838 992.48-993.567 992.48C445.103 1985.29.27 1540.94.27 992.805S445.108.326 993.838.326z" fill="#1bab95"/><path d="M1436.774 356.888L533.608 500.16v542.68l328.285 328.257-396.12 223.79 378.79 379.27c48.69 7.328 98.537 11.137 149.273 11.137 548.73 0 993.562-444.352 993.562-992.486 0-30.237-1.357-60.158-4.008-89.707l-546.616-546.21z" fill="#17907d"/><path d="M936.584 511.712l.274 96.268h500.766V356.723h-629.76c-125.594 0-216.816 28.435-273.613 85.248-56.82 56.84-85.22 148.067-85.22 273.69v53.84c0 125.63 28.4 216.88 85.225 273.697 56.798 56.842 148.02 85.248 273.614 85.248h312.064l-1.473-105.363 269.44 222.04-269.44 235.497v-100.93s-325.562-8.96-653.282-26.91v242.285c130.36 10.767 256.57 19.124 378.574 25.125l165.066 7.18c68.178 2.382 132.77 3.588 193.772 3.588 117.21 0 203.33-27.51 258.363-82.556 55.003-55.02 82.533-141.166 82.533-258.438v-89.733c0-117.245-27.53-203.39-82.532-258.437-55.03-55.02-141.15-82.555-258.362-82.555h-266.3l.298 103.283-262.71-222.04 262.705-228.77z" fill="#fff"/><path d="M6853.684 394.375c-39.365 0-71.522 31.904-71.522 71.1s32.157 71.1 71.522 71.1c39.365 0 71.52-31.904 71.52-71.1s-32.155-71.1-71.52-71.1zm0 17.5c29.97 0 54.02 23.925 54.02 53.6 0 29.674-24.05 53.6-54.02 53.6-29.97 0-54.022-23.926-54.022-53.6 0-29.675 24.05-53.6 54.022-53.6z" fill="#505050"/><g fill="#505050"><path d="M2516.701 1085.041c19.4 2.7 40.4 5 62.8 6.9 19.4 1.9 41.6 3.4 66.5 4.6 24.9 1.1 51.3 1.7 79.1 1.7 36.9 0 66.3-2.4 88-7.1 21.7-4.8 38.3-11.8 49.7-21.1 11.4-9.3 18.8-20.8 22-34.6 3.2-13.7 4.9-29.5 4.9-47.4 0-14.1-.7-26.9-2-38.6-1.3-11.6-4.5-22-9.4-31.1-5-9.1-12-17-21.1-23.7-9.1-6.7-21.7-12.1-37.7-16.3l-166.2-43.4c-26.3-6.9-48.6-16.1-66.8-27.7-18.3-11.6-33-26.4-44.3-44.3-11.2-17.9-19.4-39.5-24.6-64.8-5.1-25.3-7.7-55.1-7.7-89.4 0-40.4 6.1-75.3 18.3-104.8 12.2-29.5 29.4-53.8 51.7-72.8 22.3-19 49.2-33.1 80.8-42.3 31.6-9.1 66.8-13.7 105.7-13.7 32.4 0 62 1.8 88.8 5.4 26.8 3.6 50 7.5 69.4 11.7 22.8 5 43.6 10.5 62.3 16.6v105.7c-17.1-2.3-35.2-4.4-54.3-6.3-16.4-1.9-34.8-3.5-55.1-4.9-20.4-1.3-41.4-2-63.1-2-33.9 0-61.7 1.1-83.4 3.4-21.7 2.3-38.8 7-51.4 14.3-12.6 7.2-21.3 17.5-26.3 30.8s-7.4 31-7.4 53.1c0 12.2.7 23 2 32.6 1.3 9.5 4.4 17.9 9.2 25.1 4.8 7.2 11.6 13.5 20.6 18.8 9 5.3 21.1 10.3 36.3 14.8l155 44.6c19.8 5.7 37.5 11.7 52.9 18 15.4 6.3 28.9 13.7 40.3 22.3 11.4 8.6 21.3 18.6 29.5 30 8.2 11.4 14.8 25 19.7 40.8 5 15.8 8.6 34.4 10.9 55.7 2.3 21.3 3.4 45.9 3.4 73.7 0 43.4-3.7 80.6-11.2 111.7-7.4 31-21.4 56.4-42 76s-48.9 34.1-84.9 43.4c-36 9.3-82.6 14-139.8 14-44.2 0-80.9-2-110.1-6-29.2-4-52.9-8.5-71.2-13.4-21-5.7-37.6-12.2-49.7-19.4v-100.6zM3303.001 391.641h137.1v338.1h349.5v-338.1h137.1v815h-137.1v-349.5h-349.5v349.5h-137.1v-815zM4248.701 391.641h136v544.9c0 32.4 2.9 59 8.6 80 5.7 20.9 15.1 37.4 28.3 49.4 13.1 12 30.2 20.4 51.1 25.1 20.9 4.8 46.6 7.1 77.1 7.1 27.4 0 51.3-2.4 71.7-7.1 20.4-4.8 37.4-13.1 51.1-25.1 13.7-12 23.9-28.5 30.6-49.4 6.7-20.9 10-47.6 10-80v-544.9h135.9v552.9c0 47.6-5.4 88.9-16.3 123.9s-28.3 64.1-52.3 87.1c-24 23-54.9 40.3-92.8 51.7-37.9 11.4-83.9 17.1-137.9 17.1-54.1 0-100.1-5.6-138.2-16.8-38.1-11.2-69.2-28.3-93.4-51.1-24.2-22.8-41.8-51.7-52.8-86.5s-16.6-75.9-16.6-123.1v-555.2zM5168.201 391.641h135.9v544.9c0 32.4 2.9 59 8.6 80 5.7 20.9 15.1 37.4 28.3 49.4 13.1 12 30.2 20.4 51.1 25.1 20.9 4.8 46.6 7.1 77.1 7.1 27.4 0 51.3-2.4 71.7-7.1 20.4-4.8 37.4-13.1 51.1-25.1 13.7-12 23.9-28.5 30.6-49.4 6.7-20.9 10-47.6 10-80v-544.9h135.9v552.9c0 47.6-5.4 88.9-16.3 123.9s-28.3 64.1-52.3 87.1c-24 23-54.9 40.3-92.8 51.7-37.9 11.4-83.9 17.1-137.9 17.1-54.1 0-100.1-5.6-138.2-16.8-38.1-11.2-69.2-28.3-93.4-51.1-24.2-22.8-41.8-51.7-52.8-86.5s-16.6-75.9-16.6-123.1v-555.2zM6090.501 391.641h323.3c17.5 0 35.2 1.3 53.1 4s35 7.7 51.4 15.1c16.4 7.4 31.6 17.4 45.7 30 14.1 12.6 26.5 28.7 37.1 48.3 10.7 19.6 18.9 43.3 24.8 71.1 5.9 27.8 8.9 60.4 8.9 97.7 0 37.3-3.2 69.8-9.7 97.4-6.5 27.6-15.2 51.1-26.3 70.5-11 19.4-24 35.2-38.8 47.4-14.8 12.2-30.7 21.8-47.4 28.8-16.8 7-34 11.8-51.7 14.3-17.7 2.5-35.1 3.7-52.3 3.7h-181.1v286.7h-137.1v-815zm302.1 401c20.6 0 37.2-3.4 50-10.3 12.8-6.9 22.8-16.4 30.3-28.6 7.4-12.2 12.5-26.5 15.1-42.8 2.7-16.4 4-34.1 4-53.1 0-18.7-1.3-36.4-4-53.1-2.7-16.8-7.7-31.5-15.1-44.3-7.4-12.8-17.5-22.8-30.3-30.3-12.8-7.4-29.4-11.1-50-11.1h-165.1v273.6h165.1z" class="st0"/></g><path d="M2573.201 1596.841c-7.2 0-13.9-.5-20.1-1.5-6.2-1-11.9-2.8-17-5.4-5.1-2.5-9.6-5.9-13.6-10.2-4-4.2-7.3-9.6-10.1-16.1-2.8-6.5-4.8-14.1-6.2-23-1.4-8.9-2.1-19.2-2.1-31 0-17.7 1.6-32.2 4.7-43.6 3.1-11.4 7.7-20.3 13.7-26.9 6-6.6 13.2-11.1 21.8-13.7 8.6-2.6 18.2-3.8 29-3.8 7.1 0 13.8.6 20 1.6 6.2 1.1 11.9 2.9 16.9 5.5 5.1 2.6 9.6 6.1 13.5 10.4 3.9 4.4 7.2 9.8 9.9 16.3s4.8 14.2 6.2 23.1c1.4 8.9 2.1 19.2 2.1 30.9s-.7 22-2.1 30.8c-1.4 8.9-3.5 16.5-6.2 23s-6 11.9-9.9 16.1c-3.9 4.3-8.4 7.7-13.5 10.2-5.1 2.5-10.8 4.3-16.9 5.4-6.3 1.4-13 1.9-20.1 1.9zm0-26c7.7 0 14.1-.9 19.1-2.7 5-1.8 9.1-5 12.1-9.6s5.1-10.8 6.3-18.7c1.2-7.9 1.8-17.9 1.8-30.1 0-12.2-.6-22.3-1.8-30.3-1.2-7.9-3.3-14.2-6.3-18.9-3-4.7-7-7.9-12.1-9.8-5.1-1.8-11.4-2.8-19.1-2.8-7.7 0-14.1.9-19.2 2.8-5.1 1.8-9.1 5.1-12.1 9.8-3 4.7-5.1 11-6.3 18.9-1.2 7.9-1.8 18-1.8 30.3 0 12.2.6 22.2 1.8 30.1 1.2 7.9 3.3 14.1 6.3 18.7s7 7.8 12.1 9.6c5.1 1.8 11.5 2.7 19.2 2.7zm151.9-145.7h66.6c3.6 0 7.3.3 10.9.8 3.7.6 7.2 1.6 10.6 3.1 3.4 1.5 6.5 3.6 9.4 6.2 2.9 2.6 5.5 5.9 7.7 10 2.2 4 3.9 8.9 5.1 14.7 1.2 5.7 1.8 12.4 1.8 20.1 0 7.7-.7 14.4-2 20.1-1.3 5.7-3.1 10.5-5.4 14.5-2.3 4-4.9 7.3-8 9.8-3.1 2.5-6.3 4.5-9.8 5.9-3.4 1.5-7 2.4-10.7 2.9-3.6.5-7.2.8-10.8.8h-37.3v59.1h-28.3l.2-168zm62.3 82.7c4.2 0 7.7-.7 10.3-2.1 2.6-1.4 4.7-3.4 6.2-5.9 1.5-2.5 2.6-5.5 3.1-8.8.5-3.3.8-7 .8-10.9 0-3.8-.3-7.5-.8-10.9-.6-3.5-1.6-6.5-3.1-9.1-1.5-2.6-3.6-4.7-6.2-6.2s-6.1-2.3-10.3-2.3h-34v56.4l34-.2zm129-82.7h101v26.3h-72.8v44.1h61v25.8h-61v45.6h74.8v26.3h-103v-168.1zm183.5 0h46.9l61.2 141.7h.6c-.1-2.8-.2-5.7-.2-8.6-.1-2.5-.1-5.2-.1-8.1v-125h28v168h-45.8l-51.9-118.2c-1.4-3.3-2.8-6.3-4-9.2-1.3-2.8-2.3-5.3-3.2-7.4-1.1-2.5-2.1-4.8-2.9-6.9h-.5v141.7h-28l-.1-168zm328.5 143c4 .6 8.3 1 12.9 1.4 4 .4 8.6.7 13.7.9 5.1.2 10.6.4 16.3.4 7.6 0 13.7-.5 18.1-1.5 4.5-1 7.9-2.4 10.2-4.4 2.4-1.9 3.9-4.3 4.5-7.1.7-2.8 1-6.1 1-9.8 0-2.9-.1-5.6-.4-7.9-.3-2.4-.9-4.5-1.9-6.4-1-1.9-2.5-3.5-4.4-4.9-1.9-1.4-4.5-2.5-7.8-3.4l-34.3-8.9c-5.4-1.4-10-3.3-13.8-5.7-3.8-2.4-6.8-5.4-9.1-9.1-2.3-3.7-4-8.1-5.1-13.4-1.1-5.2-1.6-11.4-1.6-18.4 0-8.3 1.3-15.5 3.8-21.6 2.5-6.1 6.1-11.1 10.7-15 4.6-3.9 10.1-6.8 16.7-8.7 6.5-1.9 13.8-2.8 21.8-2.8 6.7 0 12.8.4 18.3 1.1 5.5.7 10.3 1.5 14.3 2.4 4.7 1 9 2.2 12.8 3.4v21.8c-3.5-.5-7.3-.9-11.2-1.3-3.4-.4-7.2-.7-11.4-1-4.2-.3-8.5-.4-13-.4-7 0-12.7.2-17.2.7-4.5.5-8 1.5-10.6 2.9-2.6 1.5-4.4 3.6-5.4 6.4-1 2.8-1.5 6.4-1.5 11 0 2.5.1 4.8.4 6.7.3 2 .9 3.7 1.9 5.2 1 1.5 2.4 2.8 4.2 3.9 1.8 1.1 4.3 2.1 7.5 3.1l32 9.2c4.1 1.2 7.7 2.4 10.9 3.7 3.2 1.3 6 2.8 8.3 4.6 2.4 1.8 4.4 3.8 6.1 6.2 1.7 2.3 3 5.2 4.1 8.4 1 3.3 1.8 7.1 2.2 11.5.5 4.4.7 9.5.7 15.2 0 8.9-.8 16.6-2.3 23-1.5 6.4-4.4 11.6-8.7 15.7-4.2 4-10.1 7-17.5 8.9-7.4 1.9-17 2.9-28.8 2.9-9.1 0-16.7-.4-22.7-1.2-6-.8-10.9-1.7-14.7-2.8-4.3-1.2-7.7-2.5-10.3-4l.3-20.9zm247.4 28.7c-7.2 0-13.9-.5-20.1-1.5-6.2-1-11.9-2.8-17-5.4-5.1-2.5-9.6-5.9-13.6-10.2-4-4.2-7.3-9.6-10.1-16.1-2.7-6.5-4.8-14.1-6.2-23-1.4-8.9-2.1-19.2-2.1-31 0-17.7 1.6-32.2 4.7-43.6 3.1-11.4 7.7-20.3 13.7-26.9 6-6.6 13.2-11.1 21.8-13.7 8.6-2.5 18.2-3.8 29-3.8 7.1 0 13.8.6 20 1.6 6.2 1.1 11.9 2.9 17 5.5s9.6 6.1 13.5 10.4c3.9 4.4 7.2 9.8 9.9 16.3s4.8 14.2 6.2 23.1c1.4 8.9 2.1 19.2 2.1 30.9s-.7 22-2.1 30.8c-1.4 8.9-3.5 16.5-6.2 23s-6 11.9-9.9 16.1c-3.9 4.3-8.4 7.7-13.5 10.2-5.1 2.5-10.8 4.3-16.9 5.4-6.4 1.4-13.1 1.9-20.2 1.9zm0-26c7.7 0 14.1-.9 19.1-2.7 5.1-1.8 9.1-5 12.1-9.6s5.1-10.8 6.3-18.7c1.2-7.9 1.8-17.9 1.8-30.1 0-12.2-.6-22.3-1.8-30.3-1.2-7.9-3.3-14.2-6.3-18.9-3-4.7-7-7.9-12.1-9.8-5.1-1.8-11.4-2.8-19.1-2.8-7.7 0-14.1.9-19.2 2.8-5.1 1.8-9.1 5.1-12.1 9.8-3 4.7-5.1 11-6.3 18.9-1.2 7.9-1.8 18-1.8 30.3 0 12.2.6 22.2 1.8 30.1 1.2 7.9 3.3 14.1 6.3 18.7s7 7.8 12.1 9.6c5.1 1.8 11.5 2.7 19.2 2.7zm151.3-145.7h28v112.3c0 6.7.6 12.2 1.8 16.5 1.2 4.3 3.1 7.7 5.8 10.2 2.7 2.5 6.2 4.2 10.5 5.2s9.6 1.5 15.9 1.5c5.6 0 10.6-.5 14.8-1.5 4.2-1 7.7-2.7 10.5-5.2s4.9-5.9 6.3-10.2c1.4-4.3 2.1-9.8 2.1-16.5v-112.3h28v114c0 9.8-1.1 18.3-3.4 25.6-2.2 7.2-5.8 13.2-10.8 17.9-4.9 4.8-11.3 8.3-19.1 10.7-7.8 2.3-17.3 3.5-28.4 3.5-11.1 0-20.6-1.2-28.5-3.5-7.8-2.3-14.3-5.8-19.2-10.5-5-4.7-8.6-10.7-10.9-17.8-2.3-7.2-3.4-15.6-3.4-25.4v-114.5zm214.3 0h62.5c4.5 0 8.8.3 13.1.9 4.3.6 8.3 1.6 12.1 3.1 3.8 1.5 7.3 3.5 10.4 6.1 3.1 2.6 5.9 5.8 8.2 9.8 2.3 4 4.1 8.8 5.4 14.4 1.3 5.6 1.9 12.1 1.9 19.7 0 5-.4 9.5-1.2 13.5-.8 4-1.9 7.5-3.3 10.5s-2.9 5.7-4.7 8c-1.8 2.3-3.6 4.2-5.4 5.9-4.3 3.8-9.2 6.4-14.6 7.9v.2l35.4 68.1h-32.3l-31.4-61.7h-27.9v61.7h-28.3l.1-168.1zm62.2 79.7c14.8 0 22.1-9.1 22.1-27.4 0-4.8-.5-8.8-1.6-12.2-1.1-3.3-2.6-6-4.6-8.1-2-2-4.4-3.5-7.2-4.4-2.8-.9-6-1.4-9.4-1.4h-33.3v53.4l34 .1zm195 91.3c-5.4 0-10.8-.5-16.2-1.5-5.4-1-10.5-2.8-15.3-5.3-4.8-2.5-9.3-5.9-13.5-10.2-4.2-4.3-7.8-9.7-10.8-16.2-3.1-6.6-5.5-14.3-7.2-23.4-1.7-9.1-2.6-19.6-2.6-31.7 0-11.6 1-21.8 2.9-30.6 2-8.8 4.6-16.3 7.9-22.7 3.3-6.4 7.1-11.6 11.5-15.7s9-7.4 13.9-9.8c4.9-2.4 9.8-4.1 14.8-5.1s9.9-1.5 14.5-1.5c7.9 0 14.7.4 20.5 1.2 5.8.8 10.7 1.7 14.6 2.6 4.6 1.1 8.4 2.3 11.7 3.8v20.2c-3.2-.2-6.7-.5-10.4-.7-3.1-.2-6.7-.3-10.8-.5-4-.2-8.3-.3-12.7-.3-4 0-8 .2-12 .5s-7.8 1.1-11.4 2.4c-3.7 1.3-7 3.2-10.2 5.7-3.1 2.5-5.9 5.9-8.2 10.3-2.3 4.4-4.1 9.8-5.4 16.3-1.3 6.5-1.9 14.4-1.9 23.6 0 9.7.7 18 2 24.9 1.3 6.9 3.2 12.7 5.5 17.3 2.4 4.6 5.1 8.3 8.2 10.9 3.1 2.7 6.6 4.7 10.2 6.1 3.7 1.4 7.5 2.2 11.5 2.6 4 .4 8 .5 12 .5 5.2 0 9.9-.1 14.1-.2 4.2-.2 7.9-.3 10.8-.5 3.5-.2 6.7-.5 9.5-.7v20.3c-3.5 1.4-7.5 2.6-12.2 3.7-4.1.9-9.1 1.8-15 2.5-5.6.8-12.5 1.2-20.3 1.2zm129.3-171h101v26.3h-72.8v44.1h61v25.8h-61v45.6h74.8v26.3h-103v-168.1zm292 0h101v26.3h-72.8v44.1h61v25.8h-61v45.6h74.8v26.3h-103v-168.1zm169.1 85.4h79.4v26.7h-79.4v-26.7zm213.8 85.6c-5.4 0-10.8-.5-16.2-1.5-5.4-1-10.5-2.8-15.3-5.3-4.8-2.5-9.3-5.9-13.5-10.2-4.2-4.3-7.8-9.7-10.8-16.2-3.1-6.6-5.5-14.3-7.2-23.4-1.7-9-2.6-19.6-2.6-31.7 0-11.6 1-21.8 2.9-30.6 2-8.8 4.6-16.3 7.9-22.7 3.3-6.4 7.1-11.6 11.5-15.7s9-7.4 13.9-9.8c4.9-2.4 9.8-4.1 14.8-5.1s9.9-1.5 14.5-1.5c7.8 0 14.7.4 20.5 1.2 5.8.8 10.7 1.7 14.6 2.6 4.6 1.1 8.4 2.3 11.7 3.8v20.2c-3.2-.2-6.7-.5-10.4-.7-3.1-.2-6.7-.3-10.8-.5-4-.2-8.3-.3-12.7-.3-4 0-8 .2-12 .5s-7.8 1.1-11.4 2.4c-3.7 1.3-7 3.2-10.2 5.7-3.1 2.5-5.9 5.9-8.2 10.3-2.3 4.4-4.1 9.8-5.4 16.3-1.3 6.5-1.9 14.4-1.9 23.6 0 9.7.7 18 2 24.9 1.3 6.9 3.2 12.7 5.5 17.3 2.4 4.6 5.1 8.3 8.2 10.9 3.1 2.7 6.6 4.7 10.2 6.1 3.7 1.4 7.5 2.2 11.5 2.6 4 .4 8 .5 12 .5 5.2 0 9.9-.1 14.1-.2 4.2-.2 7.9-.3 10.8-.5 3.5-.2 6.7-.5 9.5-.7v20.3c-3.5 1.4-7.5 2.6-12.2 3.7-4.1.9-9.1 1.8-15 2.5-5.6.8-12.5 1.2-20.3 1.2zm190.5.7c-7.2 0-13.9-.5-20.1-1.5-6.2-1-11.9-2.8-17-5.4-5.1-2.5-9.6-5.9-13.6-10.2-4-4.2-7.3-9.6-10.1-16.1-2.7-6.5-4.8-14.1-6.2-23-1.4-8.9-2.1-19.2-2.1-31 0-17.7 1.6-32.2 4.7-43.6 3.1-11.4 7.7-20.3 13.7-26.9 6-6.6 13.2-11.1 21.8-13.7 8.6-2.5 18.2-3.8 29-3.8 7.1 0 13.8.6 20 1.6 6.2 1.1 11.9 2.9 17 5.5s9.6 6.1 13.5 10.4c3.9 4.4 7.2 9.8 10 16.3 2.7 6.5 4.8 14.2 6.2 23.1 1.4 8.9 2.1 19.2 2.1 30.9s-.7 22-2.1 30.8c-1.4 8.9-3.5 16.5-6.2 23s-6 11.9-10 16.1c-3.9 4.3-8.4 7.7-13.5 10.2-5.1 2.5-10.8 4.3-17 5.4-6.3 1.4-12.9 1.9-20.1 1.9zm0-26c7.7 0 14.1-.9 19.1-2.7 5-1.8 9.1-5 12.1-9.6s5.1-10.8 6.3-18.7c1.2-7.9 1.8-17.9 1.8-30.1 0-12.2-.6-22.3-1.8-30.3-1.2-7.9-3.3-14.2-6.3-18.9-3-4.7-7-7.9-12.1-9.8-5.1-1.8-11.4-2.8-19.1-2.8-7.7 0-14.1.9-19.2 2.8-5.1 1.8-9.1 5.1-12.1 9.8-3 4.7-5.1 11-6.3 18.9-1.2 7.9-1.8 18-1.8 30.3 0 12.2.6 22.2 1.8 30.1 1.2 7.9 3.3 14.1 6.3 18.7s7 7.8 12.1 9.6c5.1 1.8 11.5 2.7 19.2 2.7zm152-145.7h49l31.1 101.2h.9l32.2-101.2h48.2v168h-28.3v-141.7h-.7l-3.2 10.6c-.9 3-1.8 6.1-2.8 9.4-1 3.3-1.9 6.1-2.7 8.4l-21.7 67.8h-42.3l-22.1-68.3c-.8-2.3-1.7-5.1-2.7-8.3-1-3.2-2-6.2-2.8-9.1-1-3.4-2.1-6.9-3.2-10.5h-.7v141.7h-28.3l.1-168zm252.3 0h49l31.1 101.2h.9l32.2-101.2h48.2v168h-28.3v-141.7h-.7l-3.2 10.6c-.9 3-1.8 6.1-2.8 9.4-1 3.3-1.9 6.1-2.7 8.4l-21.6 67.8h-42.3l-22.1-68.3c-.8-2.3-1.7-5.1-2.7-8.3-1-3.2-2-6.2-2.8-9.1-1-3.4-2.1-6.9-3.2-10.5h-.7v141.7h-28.3v-168zm252.4 0h101v26.3h-72.8v44.1h61v25.8h-61v45.6h74.8v26.3h-103v-168.1zm183.5 0h62.5c4.5 0 8.8.3 13.1.9 4.3.6 8.3 1.6 12.1 3.1 3.8 1.5 7.3 3.5 10.4 6.1 3.1 2.6 5.9 5.8 8.2 9.8 2.3 4 4.1 8.8 5.4 14.4 1.3 5.6 1.9 12.1 1.9 19.7 0 5-.4 9.5-1.2 13.5-.8 4-1.9 7.5-3.3 10.5-1.4 3.1-2.9 5.7-4.7 8-1.8 2.3-3.6 4.2-5.4 5.9-4.3 3.8-9.2 6.4-14.6 7.9v.2l35.4 68.1h-32.3l-31.4-61.7h-27.9v61.7h-28.3l.1-168.1zm62.3 79.7c14.8 0 22.1-9.1 22.1-27.4 0-4.8-.5-8.8-1.6-12.2-1.1-3.3-2.6-6-4.6-8.1-2-2-4.4-3.5-7.2-4.4-2.8-.9-6-1.4-9.4-1.4h-33.4v53.4l34.1.1zm194.9 91.3c-5.4 0-10.8-.5-16.2-1.5-5.4-1-10.5-2.8-15.3-5.3-4.8-2.5-9.3-5.9-13.5-10.2-4.2-4.3-7.8-9.7-10.8-16.2-3.1-6.6-5.5-14.3-7.2-23.4-1.7-9.1-2.6-19.6-2.6-31.7 0-11.6 1-21.8 2.9-30.6 2-8.8 4.6-16.3 7.9-22.7 3.3-6.4 7.1-11.6 11.5-15.7s9-7.4 13.9-9.8c4.9-2.4 9.8-4.1 14.8-5.1s9.8-1.5 14.5-1.5c7.8 0 14.7.4 20.5 1.2 5.8.8 10.7 1.7 14.6 2.6 4.6 1.1 8.4 2.3 11.7 3.8v20.2c-3.2-.2-6.7-.5-10.4-.7-3.1-.2-6.7-.3-10.8-.5-4-.2-8.3-.3-12.7-.3-4 0-8 .2-12 .5s-7.8 1.1-11.4 2.4c-3.7 1.3-7 3.2-10.2 5.7-3.1 2.5-5.9 5.9-8.2 10.3-2.3 4.4-4.1 9.8-5.4 16.3-1.3 6.5-1.9 14.4-1.9 23.6 0 9.7.7 18 2 24.9 1.3 6.9 3.2 12.7 5.5 17.3 2.4 4.6 5.1 8.3 8.2 10.9 3.1 2.7 6.6 4.7 10.2 6.1 3.7 1.4 7.5 2.2 11.5 2.6 4 .4 8 .5 12 .5 5.2 0 9.9-.1 14.1-.2 4.2-.2 7.9-.3 10.8-.5 3.5-.2 6.7-.5 9.5-.7v20.3c-3.5 1.4-7.5 2.6-12.2 3.7-4.1.9-9.1 1.8-15 2.5-5.6.8-12.5 1.2-20.3 1.2zm129.3-171h101v26.3h-72.8v44.1h61v25.8h-61v45.6h74.8v26.3h-103v-168.1zm309.9-997.5h27.7c2 0 3.9.1 5.8.4 1.9.3 3.7.7 5.4 1.4 1.7.7 3.2 1.6 4.6 2.7 1.4 1.1 2.6 2.6 3.6 4.4 1 1.8 1.8 3.9 2.4 6.4.6 2.5.8 5.4.8 8.7 0 2.2-.2 4.2-.5 6-.4 1.8-.9 3.3-1.5 4.7-.6 1.4-1.3 2.5-2.1 3.5s-1.6 1.9-2.4 2.6c-1.9 1.7-4.1 2.8-6.5 3.5v.1l15.7 30.1h-14.3l-13.9-27.3h-12.3v27.3h-12.5v-74.5zm27.5 35.3c6.5 0 9.8-4 9.8-12.1 0-2.1-.2-3.9-.7-5.4-.5-1.5-1.1-2.7-2-3.6-.9-.9-2-1.6-3.2-2-1.3-.4-2.6-.6-4.2-.6h-14.7v23.7h15z" class="st0" fill="#505050"/></svg>