<svg xmlns="http://www.w3.org/2000/svg" viewBox="0 0 1594.1 476.4"><circle r="207.3" cy="237.9" cx="238.7" fill="#FFF" clip-rule="evenodd" fill-rule="evenodd"/><path d="M238.5 0C106.8 0 0 106.6 0 238.2s106.8 238.2 238.5 238.2S477 369.8 477 238.2 370.1 0 238.5 0zm131.9 309.5c0 28.1-6.6 48.8-19.8 62-13.2 13.2-33.9 19.8-62 19.8-14.6 0-30.1-.3-46.5-.9l-39.6-1.7c-29.3-1.4-59.6-3.4-90.9-6v-58.1c78.7 4.3 156.8 6.5 156.8 6.5v24.2l64.7-56.5-64.7-53.3.4 25.3h-74.9c-30.1 0-52-6.8-65.7-20.5-13.6-13.6-20.5-35.5-20.5-65.7v-12.9c0-30.2 6.8-52 20.5-65.7 13.6-13.6 35.5-20.5 65.7-20.5H345v60.3H224.8l-.1-23.1-63 54.9 63 53.3-.1-24.8h63.9c28.1 0 48.8 6.6 62 19.8 13.2 13.2 19.8 33.9 19.8 62v21.6z" fill="#1BAB95" clip-rule="evenodd" fill-rule="evenodd"/><g fill="#17907D" clip-rule="evenodd" fill-rule="evenodd"><path d="M345 145.8H224.8l-.1-23.1-63 54.9 63 53.3-.1-24.8h63.9c28.1 0 48.8 6.6 62 19.8 13.2 13.2 19.8 33.9 19.8 62v21.5c0 28.1-6.6 48.8-19.8 62-13.2 13.2-33.9 19.8-62 19.8-14.6 0-30.1-.3-46.5-.9l-39.6-1.7c-29.3-1.4-59.6-3.4-90.9-6l90.8 90.9c11.8 1.8 23.8 2.7 36.1 2.7 131.7 0 238.5-106.6 238.5-238.2 0-8.3-.4-16.5-1.3-24.5L345 86v59.8z"/><path d="M128.2 250.3c-.1-.1-.2-.3-.4-.4v.4l78.7 78.7c36.4 1.4 61.9 2.1 61.9 2.1v24.2l64.7-56.5-64.7-53.3.4 25.3h-74.9c-30.2-.1-52.1-6.9-65.7-20.5z"/></g><g fill="#fff"><path d="M603.501 306.373c4.667.65 9.717 1.203 15.105 1.66 4.666.457 10.006.818 15.995 1.106 5.989.265 12.338.41 19.025.41 8.875 0 15.946-.578 21.166-1.708 5.22-1.155 9.212-2.839 11.954-5.075 2.742-2.237 4.521-5.003 5.291-8.322.77-3.296 1.179-7.096 1.179-11.401 0-3.391-.169-6.47-.481-9.284-.313-2.79-1.083-5.292-2.261-7.48-1.203-2.19-2.887-4.09-5.075-5.7-2.189-1.612-5.22-2.911-9.068-3.921l-39.974-10.439c-6.326-1.66-11.69-3.872-16.067-6.662-4.402-2.79-7.937-6.35-10.655-10.655-2.694-4.306-4.666-9.5-5.917-15.586-1.227-6.085-1.852-13.253-1.852-21.503 0-9.717 1.467-18.11 4.401-25.206 2.935-7.096 7.072-12.94 12.435-17.51 5.364-4.57 11.834-7.961 19.434-10.174 7.6-2.189 16.067-3.295 25.423-3.295 7.793 0 14.913.433 21.359 1.299 6.446.865 12.026 1.803 16.692 2.814 5.484 1.202 10.487 2.525 14.984 3.992v25.423a381.345 381.345 0 0 0-13.06-1.515c-3.945-.457-8.37-.842-13.253-1.179a238.376 238.376 0 0 0-15.177-.48c-8.153 0-14.84.264-20.059.817-5.22.553-9.332 1.684-12.363 3.44-3.03 1.731-5.123 4.209-6.325 7.408-1.203 3.199-1.78 7.456-1.78 12.771 0 2.935.168 5.532.48 7.841.313 2.285 1.059 4.306 2.214 6.037 1.154 1.732 2.79 3.247 4.954 4.522 2.165 1.275 5.075 2.478 8.731 3.56l37.28 10.727c4.763 1.371 9.02 2.814 12.724 4.33 3.704 1.515 6.951 3.295 9.693 5.363 2.742 2.069 5.123 4.474 7.096 7.216 1.972 2.742 3.56 6.013 4.738 9.813 1.203 3.8 2.068 8.274 2.622 13.397.553 5.123.817 11.04.817 17.726 0 10.439-.89 19.386-2.693 26.866-1.78 7.457-5.148 13.566-10.102 18.28-4.955 4.714-11.762 8.202-20.42 10.439-8.66 2.236-19.867 3.367-33.625 3.367-10.631 0-19.458-.481-26.482-1.443-7.023-.962-12.723-2.045-17.125-3.223-5.05-1.371-9.043-2.935-11.954-4.666v-24.197zM792.623 139.596h32.975v81.32h84.062v-81.32h32.976v196.025H909.66v-84.062h-84.062v84.062h-32.975V139.596zM1020.083 139.596h32.711v131.06c0 7.793.698 14.19 2.069 19.242 1.37 5.027 3.631 8.995 6.806 11.881 3.151 2.887 7.264 4.907 12.29 6.037 5.028 1.155 11.21 1.708 18.545 1.708 6.59 0 12.339-.577 17.245-1.708 4.907-1.154 8.996-3.15 12.291-6.037 3.295-2.886 5.748-6.854 7.36-11.881 1.611-5.027 2.405-11.45 2.405-19.242v-131.06h32.687V272.58c0 11.449-1.299 21.382-3.92 29.8-2.622 8.419-6.807 15.418-12.58 20.95-5.772 5.532-13.204 9.693-22.32 12.435-9.116 2.742-20.18 4.113-33.168 4.113-13.012 0-24.076-1.347-33.24-4.04-9.164-2.695-16.644-6.808-22.465-12.291-5.82-5.484-10.053-12.435-12.7-20.806-2.645-8.37-3.992-18.255-3.992-29.608V139.596zM1241.242 139.596h32.687v131.06c0 7.793.697 14.19 2.068 19.242 1.371 5.027 3.632 8.995 6.807 11.881 3.15 2.887 7.264 4.907 12.29 6.037 5.027 1.155 11.209 1.708 18.545 1.708 6.59 0 12.338-.577 17.245-1.708 4.907-1.154 8.996-3.15 12.29-6.037 3.296-2.886 5.75-6.854 7.36-11.881 1.612-5.027 2.406-11.45 2.406-19.242v-131.06h32.687V272.58c0 11.449-1.3 21.382-3.92 29.8-2.623 8.419-6.808 15.418-12.58 20.95-5.773 5.532-13.205 9.693-22.32 12.435-9.116 2.742-20.18 4.113-33.168 4.113-13.012 0-24.076-1.347-33.24-4.04-9.164-2.695-16.644-6.808-22.465-12.291-5.82-5.484-10.054-12.435-12.7-20.806-2.645-8.37-3.992-18.255-3.992-29.608V139.596zM1463.074 139.596h77.76c4.21 0 8.467.313 12.772.962a46.874 46.874 0 0 1 12.363 3.632c3.945 1.78 7.6 4.185 10.992 7.216 3.391 3.03 6.374 6.903 8.923 11.617 2.574 4.714 4.546 10.415 5.965 17.101 1.42 6.687 2.14 14.527 2.14 23.499 0 8.971-.769 16.788-2.332 23.427-1.564 6.638-3.656 12.29-6.326 16.956-2.646 4.666-5.773 8.467-9.332 11.401-3.56 2.934-7.384 5.243-11.401 6.927-4.04 1.684-8.178 2.838-12.435 3.44a89.75 89.75 0 0 1-12.58.89h-43.557v68.957h-32.976V139.596zm72.662 96.45c4.954 0 8.947-.819 12.026-2.478 3.078-1.66 5.483-3.945 7.287-6.88 1.78-2.934 3.007-6.373 3.632-10.293.65-3.945.962-8.202.962-12.772 0-4.498-.312-8.755-.962-12.772-.65-4.04-1.852-7.576-3.632-10.655-1.78-3.078-4.209-5.484-7.287-7.288-3.08-1.78-7.072-2.67-12.026-2.67h-39.71v65.807h39.71z" class="st0"/></g></svg>