<svg xmlns="http://www.w3.org/2000/svg" viewBox="0 0 145 145" height="145" width="145"><path d="M124.5 134.968h-104v-124h62c.095 11.138-.192 22.892.148 34.608 1.137 5.407 6.722 6.923 11.287 6.392H124.5v82.593zM93.1 10.975c4.438 1.68 7.047 6.07 10.564 9.096 6.12 6.212 12.39 12.287 18.416 18.582 3.62 4.663-2.287 2.99-4.748 3.316H93.5V10.975zm39.704 25.918c-2.818-6.547-8.946-10.66-13.567-15.85-5.834-5.682-11.298-11.78-17.388-17.176-6.542-5.16-14.984-3.694-22.67-3.9-20.568.026-41.138-.05-61.703.038-5.432.387-7.62 6.09-6.977 10.825.025 42.38-.05 84.76.037 127.14.386 5.448 6.07 7.643 10.79 6.998 35.4-.025 70.8.05 106.196-.038 5.432-.386 7.62-6.09 6.977-10.824-.038-30.312.075-60.63-.057-90.94-.192-2.164-.794-4.276-1.64-6.273z" fill="#ddd"/></svg>